RedHatMonoVF-Italic.ufo
<glyph name="exclam" format="2">
  <advance width="600"/>
  <unicode hex="0021"/>
  <outline>
    <contour>
      <point x="264" y="215" type="line"/>
      <point x="321" y="215" type="line"/>
      <point x="441" y="727" type="line"/>
      <point x="366" y="727" type="line"/>
    </contour>
    <contour>
      <point x="254" y="-9" type="curve" smooth="yes"/>
      <point x="291" y="-9"/>
      <point x="324" y="26"/>
      <point x="324" y="63" type="curve" smooth="yes"/>
      <point x="324" y="96"/>
      <point x="299" y="121"/>
      <point x="267" y="121" type="curve" smooth="yes"/>
      <point x="229" y="121"/>
      <point x="196" y="87"/>
      <point x="196" y="49" type="curve" smooth="yes"/>
      <point x="196" y="16"/>
      <point x="221" y="-9"/>
    </contour>
  </outline>
</glyph>
<glyph name="percent" format="2">
  <advance width="600"/>
  <unicode hex="0025"/>
  <outline>
    <contour>
      <point x="412" y="-5" type="curve" smooth="yes"/>
      <point x="490" y="-5"/>
      <point x="554" y="75"/>
      <point x="554" y="171" type="curve" smooth="yes"/>
      <point x="554" y="240"/>
      <point x="511" y="287"/>
      <point x="448" y="287" type="curve" smooth="yes"/>
      <point x="370" y="287"/>
      <point x="306" y="207"/>
      <point x="306" y="110" type="curve" smooth="yes"/>
      <point x="306" y="42"/>
      <point x="349" y="-5"/>
    </contour>
    <contour>
      <point x="416" y="40" type="curve" smooth="yes"/>
      <point x="378" y="40"/>
      <point x="355" y="67"/>
      <point x="355" y="112" type="curve" smooth="yes"/>
      <point x="355" y="184"/>
      <point x="395" y="242"/>
      <point x="443" y="242" type="curve" smooth="yes"/>
      <point x="482" y="242"/>
      <point x="505" y="215"/>
      <point x="505" y="169" type="curve" smooth="yes"/>
      <point x="505" y="98"/>
      <point x="465" y="40"/>
    </contour>
    <contour>
      <point x="196" y="413" type="curve" smooth="yes"/>
      <point x="274" y="413"/>
      <point x="338" y="493"/>
      <point x="338" y="589" type="curve" smooth="yes"/>
      <point x="338" y="658"/>
      <point x="295" y="705"/>
      <point x="232" y="705" type="curve" smooth="yes"/>
      <point x="154" y="705"/>
      <point x="90" y="625"/>
      <point x="90" y="528" type="curve" smooth="yes"/>
      <point x="90" y="460"/>
      <point x="133" y="413"/>
    </contour>
    <contour>
      <point x="200" y="458" type="curve" smooth="yes"/>
      <point x="162" y="458"/>
      <point x="139" y="485"/>
      <point x="139" y="530" type="curve" smooth="yes"/>
      <point x="139" y="602"/>
      <point x="179" y="660"/>
      <point x="227" y="660" type="curve" smooth="yes"/>
      <point x="266" y="660"/>
      <point x="289" y="633"/>
      <point x="289" y="587" type="curve" smooth="yes"/>
      <point x="289" y="516"/>
      <point x="249" y="458"/>
    </contour>
    <component base="fraction" xOffset="38"/>
  </outline>
</glyph>
<glyph name="quotesingle" format="2">
  <advance width="600"/>
  <unicode hex="0027"/>
  <outline>
    <contour>
      <point x="336" y="530" type="line"/>
      <point x="387" y="530" type="line"/>
      <point x="443" y="750" type="line"/>
      <point x="371" y="750" type="line"/>
    </contour>
  </outline>
</glyph>
<glyph name="parenleft" format="2">
  <advance width="600"/>
  <unicode hex="0028"/>
  <outline>
    <contour>
      <point x="333" y="-222" type="curve"/>
      <point x="380" y="-171" type="line"/>
      <point x="279" y="-88"/>
      <point x="219" y="41"/>
      <point x="219" y="174" type="curve" smooth="yes"/>
      <point x="219" y="355"/>
      <point x="328" y="553"/>
      <point x="567" y="660" type="curve"/>
      <point x="540" y="714" type="line"/>
      <point x="275" y="602"/>
      <point x="149" y="380"/>
      <point x="149" y="171" type="curve" smooth="yes"/>
      <point x="149" y="17"/>
      <point x="217" y="-128"/>
    </contour>
  </outline>
</glyph>
<glyph name="asterisk" format="2">
  <advance width="600"/>
  <unicode hex="002A"/>
  <outline>
    <contour>
      <point x="296" y="341" type="line"/>
      <point x="347" y="341" type="line"/>
      <point x="375" y="478" type="line"/>
      <point x="468" y="398" type="line"/>
      <point x="505" y="440" type="line"/>
      <point x="405" y="520" type="line"/>
      <point x="535" y="584" type="line"/>
      <point x="514" y="631" type="line"/>
      <point x="394" y="569" type="line"/>
      <point x="422" y="700" type="line"/>
      <point x="372" y="700" type="line"/>
      <point x="346" y="568" type="line"/>
      <point x="252" y="648" type="line"/>
      <point x="217" y="607" type="line"/>
      <point x="315" y="528" type="line"/>
      <point x="183" y="463" type="line"/>
      <point x="203" y="414" type="line"/>
      <point x="328" y="480" type="line"/>
    </contour>
  </outline>
</glyph>
<glyph name="comma" format="2">
  <advance width="600"/>
  <unicode hex="002C"/>
  <outline>
    <contour>
      <point x="122" y="-157" type="line"/>
      <point x="179" y="-157" type="line"/>
      <point x="319" y="74" type="line"/>
      <point x="221" y="74" type="line"/>
    </contour>
  </outline>
</glyph>
<glyph name="slash" format="2">
  <advance width="600"/>
  <unicode hex="002F"/>
  <outline>
    <contour>
      <point x="-60" y="-209" type="line"/>
      <point x="19" y="-209" type="line"/>
      <point x="611" y="700" type="line"/>
      <point x="532" y="700" type="line"/>
    </contour>
  </outline>
</glyph>
<glyph name="two" format="2">
  <advance width="600"/>
  <unicode hex="0032"/>
  <outline>
    <contour>
      <point x="31" y="0" type="line"/>
      <point x="472" y="0" type="line"/>
      <point x="485" y="63" type="line"/>
      <point x="137" y="62" type="line"/>
      <point x="459" y="355" type="line" smooth="yes"/>
      <point x="540" y="427"/>
      <point x="570" y="480"/>
      <point x="570" y="552" type="curve" smooth="yes"/>
      <point x="570" y="646"/>
      <point x="493" y="711"/>
      <point x="382" y="711" type="curve" smooth="yes"/>
      <point x="307" y="711"/>
      <point x="235" y="681"/>
      <point x="153" y="621" type="curve"/>
      <point x="184" y="568" type="line"/>
      <point x="260" y="624"/>
      <point x="310" y="647"/>
      <point x="369" y="647" type="curve" smooth="yes"/>
      <point x="445" y="647"/>
      <point x="499" y="604"/>
      <point x="499" y="543" type="curve" smooth="yes"/>
      <point x="499" y="493"/>
      <point x="473" y="446"/>
      <point x="417" y="395" type="curve" smooth="yes"/>
      <point x="42" y="53" type="line"/>
    </contour>
  </outline>
</glyph>
<glyph name="three" format="2">
  <advance width="600"/>
  <unicode hex="0033"/>
  <outline>
    <contour>
      <point x="268" y="-11" type="curve" smooth="yes"/>
      <point x="412" y="-11"/>
      <point x="517" y="79"/>
      <point x="517" y="204" type="curve" smooth="yes"/>
      <point x="517" y="269"/>
      <point x="474" y="327"/>
      <point x="404" y="351" type="curve"/>
      <point x="514" y="384"/>
      <point x="561" y="455"/>
      <point x="561" y="535" type="curve" smooth="yes"/>
      <point x="561" y="629"/>
      <point x="485" y="711"/>
      <point x="343" y="711" type="curve" smooth="yes"/>
      <point x="259" y="711"/>
      <point x="186" y="683"/>
      <point x="128" y="630" type="curve"/>
      <point x="166" y="580" type="line"/>
      <point x="224" y="628"/>
      <point x="275" y="647"/>
      <point x="342" y="647" type="curve" smooth="yes"/>
      <point x="437" y="647"/>
      <point x="488" y="590"/>
      <point x="488" y="524" type="curve" smooth="yes"/>
      <point x="488" y="450"/>
      <point x="420" y="389"/>
      <point x="336" y="389" type="curve" smooth="yes"/>
      <point x="256" y="389" type="line"/>
      <point x="243" y="327" type="line"/>
      <point x="302" y="327" type="line" smooth="yes"/>
      <point x="391" y="327"/>
      <point x="446" y="272"/>
      <point x="446" y="200" type="curve" smooth="yes"/>
      <point x="446" y="113"/>
      <point x="376" y="52"/>
      <point x="275" y="52" type="curve" smooth="yes"/>
      <point x="198" y="52"/>
      <point x="134" y="82"/>
      <point x="78" y="155" type="curve"/>
      <point x="24" y="111" type="line"/>
      <point x="86" y="32"/>
      <point x="167" y="-11"/>
    </contour>
  </outline>
</glyph>
<glyph name="four" format="2">
  <advance width="600"/>
  <unicode hex="0034"/>
  <outline>
    <contour>
      <point x="355" y="0" type="line"/>
      <point x="426" y="0" type="line"/>
      <point x="466" y="187" type="line"/>
      <point x="563" y="187" type="line"/>
      <point x="576" y="250" type="line"/>
      <point x="479" y="250" type="line"/>
      <point x="575" y="700" type="line"/>
      <point x="498" y="700" type="line"/>
      <point x="29" y="244" type="line"/>
      <point x="17" y="187" type="line"/>
      <point x="395" y="187" type="line"/>
    </contour>
    <contour>
      <point x="116" y="250" type="line"/>
      <point x="484" y="609" type="line"/>
      <point x="408" y="250" type="line"/>
    </contour>
  </outline>
</glyph>
<glyph name="five" format="2">
  <advance width="600"/>
  <unicode hex="0035"/>
  <outline>
    <contour>
      <point x="264" y="-11" type="curve" smooth="yes"/>
      <point x="410" y="-11"/>
      <point x="528" y="102"/>
      <point x="528" y="240" type="curve" smooth="yes"/>
      <point x="528" y="359"/>
      <point x="447" y="432"/>
      <point x="318" y="432" type="curve" smooth="yes"/>
      <point x="273" y="432"/>
      <point x="234" y="424"/>
      <point x="187" y="404" type="curve"/>
      <point x="247" y="637" type="line"/>
      <point x="578" y="637" type="line"/>
      <point x="592" y="700" type="line"/>
      <point x="199" y="700" type="line"/>
      <point x="114" y="363" type="line"/>
      <point x="159" y="342" type="line"/>
      <point x="212" y="364"/>
      <point x="254" y="374"/>
      <point x="296" y="374" type="curve" smooth="yes"/>
      <point x="396" y="374"/>
      <point x="455" y="321"/>
      <point x="455" y="233" type="curve" smooth="yes"/>
      <point x="455" y="130"/>
      <point x="375" y="51"/>
      <point x="268" y="51" type="curve" smooth="yes"/>
      <point x="190" y="51"/>
      <point x="130" y="81"/>
      <point x="79" y="146" type="curve"/>
      <point x="30" y="100" type="line"/>
      <point x="82" y="29"/>
      <point x="166" y="-11"/>
    </contour>
  </outline>
</glyph>
<glyph name="six" format="2">
  <advance width="600"/>
  <unicode hex="0036"/>
  <outline>
    <contour>
      <point x="307" y="-11" type="curve" smooth="yes"/>
      <point x="441" y="-11"/>
      <point x="558" y="86"/>
      <point x="558" y="235" type="curve" smooth="yes"/>
      <point x="558" y="350"/>
      <point x="471" y="439"/>
      <point x="341" y="439" type="curve" smooth="yes"/>
      <point x="265" y="439"/>
      <point x="195" y="404"/>
      <point x="139" y="342" type="curve"/>
      <point x="160" y="527"/>
      <point x="274" y="646"/>
      <point x="410" y="646" type="curve" smooth="yes"/>
      <point x="459" y="646"/>
      <point x="506" y="628"/>
      <point x="556" y="588" type="curve"/>
      <point x="596" y="647" type="line"/>
      <point x="542" y="688"/>
      <point x="485" y="711"/>
      <point x="409" y="711" type="curve" smooth="yes"/>
      <point x="222" y="711"/>
      <point x="65" y="543"/>
      <point x="65" y="275" type="curve" smooth="yes"/>
      <point x="65" y="93"/>
      <point x="179" y="-11"/>
    </contour>
    <contour>
      <point x="316" y="53" type="curve" smooth="yes"/>
      <point x="212" y="53"/>
      <point x="136" y="137"/>
      <point x="136" y="289" type="curve"/>
      <point x="188" y="346"/>
      <point x="258" y="380"/>
      <point x="328" y="380" type="curve" smooth="yes"/>
      <point x="426" y="380"/>
      <point x="486" y="321"/>
      <point x="486" y="234" type="curve" smooth="yes"/>
      <point x="486" y="130"/>
      <point x="412" y="53"/>
    </contour>
  </outline>
</glyph>
<glyph name="less" format="2">
  <advance width="600"/>
  <unicode hex="003C"/>
  <outline>
    <contour>
      <point x="408" y="103" type="line"/>
      <point x="452" y="148" type="line"/>
      <point x="237" y="343" type="line"/>
      <point x="535" y="542" type="line"/>
      <point x="503" y="594" type="line"/>
      <point x="143" y="349" type="line"/>
    </contour>
  </outline>
</glyph>
<glyph name="at" format="2">
  <advance width="600"/>
  <unicode hex="0040"/>
  <outline>
    <contour>
      <point x="298" y="-144" type="curve" smooth="yes"/>
      <point x="357" y="-144"/>
      <point x="412" y="-131"/>
      <point x="463" y="-101" type="curve"/>
      <point x="443" y="-59" type="line"/>
      <point x="401" y="-86"/>
      <point x="351" y="-99"/>
      <point x="300" y="-99" type="curve" smooth="yes"/>
      <point x="156" y="-99"/>
      <point x="54" y="18"/>
      <point x="54" y="185" type="curve" smooth="yes"/>
      <point x="54" y="374"/>
      <point x="171" y="532"/>
      <point x="326" y="532" type="curve" smooth="yes"/>
      <point x="454" y="532"/>
      <point x="546" y="432"/>
      <point x="546" y="289" type="curve" smooth="yes"/>
      <point x="546" y="185"/>
      <point x="500" y="99"/>
      <point x="445" y="99" type="curve" smooth="yes"/>
      <point x="412" y="99"/>
      <point x="401" y="125"/>
      <point x="409" y="164" type="curve" smooth="yes"/>
      <point x="452" y="366" type="line"/>
      <point x="396" y="366" type="line"/>
      <point x="391" y="341" type="line"/>
      <point x="370" y="364"/>
      <point x="339" y="379"/>
      <point x="307" y="379" type="curve" smooth="yes"/>
      <point x="211" y="379"/>
      <point x="142" y="301"/>
      <point x="142" y="193" type="curve" smooth="yes"/>
      <point x="142" y="110"/>
      <point x="194" y="52"/>
      <point x="261" y="52" type="curve" smooth="yes"/>
      <point x="294" y="52"/>
      <point x="330" y="64"/>
      <point x="364" y="92" type="curve"/>
      <point x="377" y="68"/>
      <point x="403" y="55"/>
      <point x="437" y="55" type="curve" smooth="yes"/>
      <point x="528" y="55"/>
      <point x="592" y="158"/>
      <point x="592" y="295" type="curve" smooth="yes"/>
      <point x="592" y="464"/>
      <point x="481" y="576"/>
      <point x="329" y="576" type="curve" smooth="yes"/>
      <point x="145" y="576"/>
      <point x="8" y="398"/>
      <point x="8" y="184" type="curve" smooth="yes"/>
      <point x="8" y="-10"/>
      <point x="131" y="-144"/>
    </contour>
    <contour>
      <point x="277" y="99" type="curve" smooth="yes"/>
      <point x="226" y="99"/>
      <point x="195" y="140"/>
      <point x="195" y="196" type="curve" smooth="yes"/>
      <point x="195" y="267"/>
      <point x="238" y="331"/>
      <point x="306" y="331" type="curve" smooth="yes"/>
      <point x="338" y="331"/>
      <point x="367" y="314"/>
      <point x="380" y="287" type="curve"/>
      <point x="356" y="171" type="line" smooth="yes"/>
      <point x="353" y="156"/>
      <point x="352" y="143"/>
      <point x="353" y="131" type="curve"/>
      <point x="334" y="111"/>
      <point x="307" y="99"/>
    </contour>
  </outline>
</glyph>
<glyph name="B" format="2">
  <advance width="600"/>
  <unicode hex="0042"/>
  <outline>
    <contour>
      <point x="43" y="0" type="line"/>
      <point x="285" y="0" type="line" smooth="yes"/>
      <point x="428" y="0"/>
      <point x="533" y="92"/>
      <point x="533" y="217" type="curve" smooth="yes"/>
      <point x="533" y="288"/>
      <point x="492" y="339"/>
      <point x="423" y="360" type="curve"/>
      <point x="515" y="384"/>
      <point x="576" y="455"/>
      <point x="576" y="545" type="curve" smooth="yes"/>
      <point x="576" y="641"/>
      <point x="505" y="700"/>
      <point x="391" y="700" type="curve" smooth="yes"/>
      <point x="192" y="700" type="line"/>
    </contour>
    <contour>
      <point x="204" y="394" type="line"/>
      <point x="255" y="634" type="line"/>
      <point x="378" y="634" type="line" smooth="yes"/>
      <point x="454" y="634"/>
      <point x="499" y="595"/>
      <point x="499" y="532" type="curve" smooth="yes"/>
      <point x="499" y="451"/>
      <point x="436" y="394"/>
      <point x="344" y="394" type="curve" smooth="yes"/>
    </contour>
    <contour>
      <point x="134" y="66" type="line"/>
      <point x="190" y="331" type="line"/>
      <point x="321" y="331" type="line" smooth="yes"/>
      <point x="406" y="331"/>
      <point x="457" y="288"/>
      <point x="457" y="218" type="curve" smooth="yes"/>
      <point x="457" y="128"/>
      <point x="386" y="66"/>
      <point x="284" y="66" type="curve" smooth="yes"/>
    </contour>
  </outline>
</glyph>
<glyph name="D" format="2">
  <advance width="600"/>
  <unicode hex="0044"/>
  <anchor x="367" y="700" name="top"/>
  <outline>
    <contour>
      <point x="35" y="0" type="line"/>
      <point x="245" y="0" type="line" smooth="yes"/>
      <point x="444" y="0"/>
      <point x="589" y="180"/>
      <point x="589" y="415" type="curve" smooth="yes"/>
      <point x="589" y="609"/>
      <point x="479" y="700"/>
      <point x="327" y="700" type="curve" smooth="yes"/>
      <point x="184" y="700" type="line"/>
    </contour>
    <contour>
      <point x="327" y="633" type="line" smooth="yes"/>
      <point x="443" y="633"/>
      <point x="513" y="556"/>
      <point x="513" y="409" type="curve" smooth="yes"/>
      <point x="513" y="221"/>
      <point x="406" y="67"/>
      <point x="243" y="67" type="curve" smooth="yes"/>
      <point x="126" y="67" type="line"/>
      <point x="247" y="633" type="line"/>
    </contour>
  </outline>
</glyph>
<glyph name="F" format="2">
  <advance width="600"/>
  <unicode hex="0046"/>
  <outline>
    <contour>
      <point x="50" y="0" type="line"/>
      <point x="127" y="0" type="line"/>
      <point x="194" y="315" type="line"/>
      <point x="445" y="315" type="line"/>
      <point x="459" y="382" type="line"/>
      <point x="208" y="382" type="line"/>
      <point x="262" y="633" type="line"/>
      <point x="627" y="633" type="line"/>
      <point x="642" y="700" type="line"/>
      <point x="199" y="700" type="line"/>
    </contour>
  </outline>
</glyph>
<glyph name="H" format="2">
  <advance width="600"/>
  <unicode hex="0048"/>
  <anchor x="397" y="700" name="top"/>
  <outline>
    <contour>
      <point x="20" y="0" type="line"/>
      <point x="97" y="0" type="line"/>
      <point x="165" y="319" type="line"/>
      <point x="467" y="319" type="line"/>
      <point x="399" y="0" type="line"/>
      <point x="476" y="0" type="line"/>
      <point x="625" y="700" type="line"/>
      <point x="548" y="700" type="line"/>
      <point x="481" y="386" type="line"/>
      <point x="179" y="386" type="line"/>
      <point x="246" y="700" type="line"/>
      <point x="169" y="700" type="line"/>
    </contour>
  </outline>
</glyph>
<glyph name="L" format="2">
  <advance width="600"/>
  <unicode hex="004C"/>
  <anchor x="238" y="700" name="top"/>
  <anchor x="273" y="0" name="bottom"/>
  <outline>
    <contour>
      <point x="52" y="0" type="line"/>
      <point x="489" y="0" type="line"/>
      <point x="503" y="68" type="line"/>
      <point x="143" y="68" type="line"/>
      <point x="278" y="700" type="line"/>
      <point x="201" y="700" type="line"/>
    </contour>
  </outline>
</glyph>
<glyph name="M" format="2">
  <advance width="600"/>
  <unicode hex="004D"/>
  <outline>
    <contour>
      <point x="7" y="0" type="line"/>
      <point x="76" y="0" type="line"/>
      <point x="205" y="609" type="line"/>
      <point x="293" y="210" type="line"/>
      <point x="545" y="601" type="line"/>
      <point x="418" y="0" type="line"/>
      <point x="489" y="0" type="line"/>
      <point x="636" y="700" type="line"/>
      <point x="540" y="700" type="line"/>
      <point x="324" y="366" type="line"/>
      <point x="248" y="700" type="line"/>
      <point x="156" y="700" type="line"/>
    </contour>
  </outline>
</glyph>
<glyph name="N" format="2">
  <advance width="600"/>
  <unicode hex="004E"/>
  <anchor x="406" y="700" name="top"/>
  <anchor x="244" y="0" name="bottom"/>
  <outline>
    <contour>
      <point x="25" y="0" type="line"/>
      <point x="93" y="0" type="line"/>
      <point x="217" y="599" type="line"/>
      <point x="397" y="0" type="line"/>
      <point x="471" y="0" type="line"/>
      <point x="620" y="700" type="line"/>
      <point x="552" y="700" type="line"/>
      <point x="433" y="124" type="line"/>
      <point x="260" y="700" type="line"/>
      <point x="174" y="700" type="line"/>
    </contour>
  </outline>
</glyph>
<glyph name="O" format="2">
  <advance width="600"/>
  <unicode hex="004F"/>
  <anchor x="381" y="700" name="top"/>
  <outline>
    <contour>
      <point x="280" y="-11" type="curve" smooth="yes"/>
      <point x="443" y="-11"/>
      <point x="588" y="180"/>
      <point x="588" y="430" type="curve" smooth="yes"/>
      <point x="588" y="616"/>
      <point x="492" y="711"/>
      <point x="364" y="711" type="curve" smooth="yes"/>
      <point x="201" y="711"/>
      <point x="56" y="520"/>
      <point x="56" y="270" type="curve" smooth="yes"/>
      <point x="56" y="84"/>
      <point x="152" y="-11"/>
    </contour>
    <contour>
      <point x="278" y="59" type="curve" smooth="yes"/>
      <point x="192" y="59"/>
      <point x="132" y="136"/>
      <point x="132" y="274" type="curve" smooth="yes"/>
      <point x="132" y="478"/>
      <point x="239" y="641"/>
      <point x="362" y="641" type="curve" smooth="yes"/>
      <point x="450" y="641"/>
      <point x="512" y="564"/>
      <point x="512" y="426" type="curve" smooth="yes"/>
      <point x="512" y="222"/>
      <point x="403" y="59"/>
    </contour>
  </outline>
</glyph>
<glyph name="Q" format="2">
  <advance width="600"/>
  <unicode hex="0051"/>
  <outline>
    <contour>
      <point x="280" y="-11" type="curve" smooth="yes"/>
      <point x="326" y="-11"/>
      <point x="370" y="4"/>
      <point x="410" y="31" type="curve"/>
      <point x="439" y="-16" type="line"/>
      <point x="516" y="-11" type="line"/>
      <point x="462" y="76" type="line"/>
      <point x="537" y="155"/>
      <point x="588" y="282"/>
      <point x="588" y="430" type="curve" smooth="yes"/>
      <point x="588" y="616"/>
      <point x="492" y="711"/>
      <point x="364" y="711" type="curve" smooth="yes"/>
      <point x="201" y="711"/>
      <point x="56" y="520"/>
      <point x="56" y="270" type="curve" smooth="yes"/>
      <point x="56" y="84"/>
      <point x="152" y="-11"/>
    </contour>
    <contour>
      <point x="278" y="59" type="curve" smooth="yes"/>
      <point x="192" y="59"/>
      <point x="132" y="136"/>
      <point x="132" y="274" type="curve" smooth="yes"/>
      <point x="132" y="478"/>
      <point x="239" y="641"/>
      <point x="362" y="641" type="curve" smooth="yes"/>
      <point x="450" y="641"/>
      <point x="512" y="564"/>
      <point x="512" y="426" type="curve" smooth="yes"/>
      <point x="512" y="310"/>
      <point x="477" y="207"/>
      <point x="423" y="140" type="curve"/>
      <point x="370" y="226" type="line"/>
      <point x="294" y="222" type="line"/>
      <point x="373" y="92" type="line"/>
      <point x="344" y="71"/>
      <point x="312" y="59"/>
    </contour>
  </outline>
</glyph>
<glyph name="R" format="2">
  <advance width="600"/>
  <unicode hex="0052"/>
  <anchor x="397" y="700" name="top"/>
  <anchor x="254" y="0" name="bottom"/>
  <outline>
    <contour>
      <point x="50" y="0" type="line"/>
      <point x="127" y="0" type="line"/>
      <point x="191" y="299" type="line"/>
      <point x="322" y="299" type="line"/>
      <point x="419" y="0" type="line"/>
      <point x="499" y="0" type="line"/>
      <point x="398" y="305" type="line"/>
      <point x="507" y="328"/>
      <point x="581" y="413"/>
      <point x="581" y="523" type="curve" smooth="yes"/>
      <point x="581" y="631"/>
      <point x="506" y="700"/>
      <point x="387" y="700" type="curve" smooth="yes"/>
      <point x="199" y="700" type="line"/>
    </contour>
    <contour>
      <point x="204" y="363" type="line"/>
      <point x="262" y="632" type="line"/>
      <point x="376" y="632" type="line" smooth="yes"/>
      <point x="456" y="632"/>
      <point x="506" y="588"/>
      <point x="506" y="518" type="curve" smooth="yes"/>
      <point x="506" y="427"/>
      <point x="436" y="363"/>
      <point x="338" y="363" type="curve" smooth="yes"/>
    </contour>
  </outline>
</glyph>
<glyph name="S" format="2">
  <advance width="600"/>
  <unicode hex="0053"/>
  <anchor x="397" y="700" name="top"/>
  <anchor x="284" y="0" name="bottom"/>
  <outline>
    <contour>
      <point x="295" y="-11" type="curve" smooth="yes"/>
      <point x="426" y="-11"/>
      <point x="531" y="70"/>
      <point x="531" y="198" type="curve" smooth="yes"/>
      <point x="531" y="428"/>
      <point x="203" y="353"/>
      <point x="203" y="527" type="curve" smooth="yes"/>
      <point x="203" y="593"/>
      <point x="257" y="646"/>
      <point x="352" y="646" type="curve" smooth="yes"/>
      <point x="421" y="646"/>
      <point x="495" y="614"/>
      <point x="561" y="551" type="curve"/>
      <point x="607" y="607" type="line"/>
      <point x="531" y="680"/>
      <point x="441" y="711"/>
      <point x="350" y="711" type="curve" smooth="yes"/>
      <point x="213" y="711"/>
      <point x="129" y="629"/>
      <point x="129" y="521" type="curve" smooth="yes"/>
      <point x="129" y="292"/>
      <point x="454" y="368"/>
      <point x="454" y="192" type="curve" smooth="yes"/>
      <point x="454" y="110"/>
      <point x="385" y="55"/>
      <point x="297" y="55" type="curve" smooth="yes"/>
      <point x="220" y="55"/>
      <point x="135" y="96"/>
      <point x="79" y="170" type="curve"/>
      <point x="27" y="121" type="line"/>
      <point x="88" y="37"/>
      <point x="192" y="-11"/>
    </contour>
  </outline>
</glyph>
<glyph name="T" format="2">
  <advance width="600"/>
  <unicode hex="0054"/>
  <anchor x="397" y="700" name="top"/>
  <anchor x="248" y="0" name="bottom"/>
  <outline>
    <contour>
      <point x="210" y="0" type="line"/>
      <point x="287" y="0" type="line"/>
      <point x="422" y="632" type="line"/>
      <point x="652" y="632" type="line"/>
      <point x="667" y="700" type="line"/>
      <point x="127" y="700" type="line"/>
      <point x="112" y="632" type="line"/>
      <point x="345" y="632" type="line"/>
    </contour>
  </outline>
</glyph>
<glyph name="W" format="2">
  <advance width="600"/>
  <unicode hex="0057"/>
  <anchor x="399" y="700" name="top"/>
  <outline>
    <contour>
      <point x="59" y="0" type="line"/>
      <point x="133" y="0" type="line"/>
      <point x="371" y="573" type="line"/>
      <point x="366" y="0" type="line"/>
      <point x="440" y="0" type="line"/>
      <point x="672" y="700" type="line"/>
      <point x="604" y="700" type="line"/>
      <point x="427" y="155" type="line"/>
      <point x="432" y="700" type="line"/>
      <point x="362" y="700" type="line"/>
      <point x="142" y="173" type="line"/>
      <point x="195" y="700" type="line"/>
      <point x="122" y="700" type="line"/>
    </contour>
  </outline>
</glyph>
<glyph name="X" format="2">
  <advance width="600"/>
  <unicode hex="0058"/>
  <outline>
    <contour>
      <point x="-28" y="0" type="line"/>
      <point x="63" y="0" type="line"/>
      <point x="315" y="301" type="line"/>
      <point x="440" y="0" type="line"/>
      <point x="524" y="0" type="line"/>
      <point x="369" y="359" type="line"/>
      <point x="659" y="700" type="line"/>
      <point x="569" y="700" type="line"/>
      <point x="339" y="426" type="line"/>
      <point x="227" y="700" type="line"/>
      <point x="143" y="700" type="line"/>
      <point x="286" y="367" type="line"/>
    </contour>
  </outline>
</glyph>
<glyph name="bracketleft" format="2">
  <advance width="600"/>
  <unicode hex="005B"/>
  <outline>
    <contour>
      <point x="83" y="-215" type="line"/>
      <point x="374" y="-215" type="line"/>
      <point x="387" y="-155" type="line"/>
      <point x="166" y="-155" type="line"/>
      <point x="335" y="640" type="line"/>
      <point x="556" y="640" type="line"/>
      <point x="569" y="700" type="line"/>
      <point x="278" y="700" type="line"/>
    </contour>
  </outline>
</glyph>
<glyph name="backslash" format="2">
  <advance width="600"/>
  <unicode hex="005C"/>
  <outline>
    <contour>
      <point x="394" y="-209" type="line"/>
      <point x="464" y="-209" type="line"/>
      <point x="257" y="700" type="line"/>
      <point x="187" y="700" type="line"/>
    </contour>
  </outline>
</glyph>
<glyph name="bracketright" format="2">
  <advance width="600"/>
  <unicode hex="005D"/>
  <outline>
    <contour>
      <point x="516" y="700" type="line"/>
      <point x="225" y="700" type="line"/>
      <point x="212" y="640" type="line"/>
      <point x="433" y="640" type="line"/>
      <point x="264" y="-155" type="line"/>
      <point x="43" y="-155" type="line"/>
      <point x="30" y="-215" type="line"/>
      <point x="321" y="-215" type="line"/>
    </contour>
  </outline>
</glyph>
<glyph name="asciicircum" format="2">
  <advance width="600"/>
  <unicode hex="005E"/>
  <outline>
    <contour>
      <point x="117" y="350" type="line"/>
      <point x="186" y="350" type="line"/>
      <point x="386" y="634" type="line"/>
      <point x="466" y="350" type="line"/>
      <point x="527" y="350" type="line"/>
      <point x="429" y="700" type="line"/>
      <point x="366" y="700" type="line"/>
    </contour>
  </outline>
</glyph>
<glyph name="underscore" format="2">
  <advance width="600"/>
  <unicode hex="005F"/>
  <outline>
    <contour>
      <point x="-11" y="-137" type="line"/>
      <point x="449" y="-137" type="line"/>
      <point x="461" y="-80" type="line"/>
      <point x="1" y="-80" type="line"/>
    </contour>
  </outline>
</glyph>
<glyph name="a" format="2">
  <advance width="600"/>
  <unicode hex="0061"/>
  <anchor x="332" y="488" name="top"/>
  <anchor x="434" y="0" name="bottom"/>
  <outline>
    <contour>
      <point x="225" y="-10" type="curve" smooth="yes"/>
      <point x="277" y="-10"/>
      <point x="325" y="6"/>
      <point x="372" y="42" type="curve"/>
      <point x="363" y="0" type="line"/>
      <point x="434" y="0" type="line"/>
      <point x="502" y="305" type="line" smooth="yes"/>
      <point x="527" y="418"/>
      <point x="457" y="496"/>
      <point x="331" y="496" type="curve" smooth="yes"/>
      <point x="270" y="496"/>
      <point x="212" y="481"/>
      <point x="149" y="451" type="curve"/>
      <point x="170" y="395" type="line"/>
      <point x="229" y="422"/>
      <point x="276" y="436"/>
      <point x="319" y="436" type="curve" smooth="yes"/>
      <point x="412" y="436"/>
      <point x="450" y="389"/>
      <point x="430" y="299" type="curve" smooth="yes"/>
      <point x="416" y="238" type="line"/>
      <point x="374" y="269"/>
      <point x="315" y="285"/>
      <point x="254" y="285" type="curve" smooth="yes"/>
      <point x="136" y="285"/>
      <point x="57" y="221"/>
      <point x="57" y="126" type="curve" smooth="yes"/>
      <point x="57" y="44"/>
      <point x="125" y="-10"/>
    </contour>
    <contour>
      <point x="126" y="131" type="curve" smooth="yes"/>
      <point x="126" y="191"/>
      <point x="181" y="231"/>
      <point x="261" y="231" type="curve" smooth="yes"/>
      <point x="321" y="231"/>
      <point x="368" y="218"/>
      <point x="405" y="189" type="curve"/>
      <point x="384" y="94" type="line"/>
      <point x="340" y="60"/>
      <point x="295" y="45"/>
      <point x="243" y="45" type="curve" smooth="yes"/>
      <point x="170" y="45"/>
      <point x="126" y="78"/>
    </contour>
  </outline>
</glyph>
<glyph name="b" format="2">
  <advance width="600"/>
  <unicode hex="0062"/>
  <outline>
    <contour>
      <point x="286" y="-8" type="curve" smooth="yes"/>
      <point x="425" y="-8"/>
      <point x="539" y="118"/>
      <point x="539" y="271" type="curve" smooth="yes"/>
      <point x="539" y="398"/>
      <point x="456" y="492"/>
      <point x="344" y="492" type="curve" smooth="yes"/>
      <point x="288" y="492"/>
      <point x="240" y="471"/>
      <point x="201" y="431" type="curve"/>
      <point x="265" y="737" type="line"/>
      <point x="191" y="722" type="line"/>
      <point x="38" y="0" type="line"/>
      <point x="109" y="0" type="line"/>
      <point x="126" y="80" type="line"/>
      <point x="160" y="24"/>
      <point x="216" y="-8"/>
    </contour>
    <contour>
      <point x="139" y="139" type="curve"/>
      <point x="189" y="374" type="line"/>
      <point x="224" y="410"/>
      <point x="270" y="430"/>
      <point x="318" y="430" type="curve" smooth="yes"/>
      <point x="407" y="430"/>
      <point x="468" y="363"/>
      <point x="468" y="265" type="curve" smooth="yes"/>
      <point x="468" y="148"/>
      <point x="384" y="56"/>
      <point x="277" y="56" type="curve" smooth="yes"/>
      <point x="218" y="56"/>
      <point x="163" y="89"/>
    </contour>
  </outline>
</glyph>
<glyph name="c" format="2">
  <advance width="600"/>
  <unicode hex="0063"/>
  <anchor x="339" y="488" name="top"/>
  <anchor x="281" y="0" name="bottom"/>
  <outline>
    <contour>
      <point x="280" y="-10" type="curve" smooth="yes"/>
      <point x="362" y="-10"/>
      <point x="438" y="25"/>
      <point x="488" y="87" type="curve"/>
      <point x="439" y="126" type="line"/>
      <point x="401" y="82"/>
      <point x="347" y="53"/>
      <point x="287" y="53" type="curve" smooth="yes"/>
      <point x="200" y="53"/>
      <point x="136" y="121"/>
      <point x="136" y="215" type="curve" smooth="yes"/>
      <point x="136" y="334"/>
      <point x="223" y="432"/>
      <point x="330" y="432" type="curve" smooth="yes"/>
      <point x="399" y="432"/>
      <point x="445" y="397"/>
      <point x="470" y="337" type="curve"/>
      <point x="533" y="368" type="line"/>
      <point x="504" y="445"/>
      <point x="426" y="496"/>
      <point x="335" y="496" type="curve" smooth="yes"/>
      <point x="187" y="496"/>
      <point x="66" y="370"/>
      <point x="66" y="212" type="curve" smooth="yes"/>
      <point x="66" y="82"/>
      <point x="155" y="-10"/>
    </contour>
  </outline>
</glyph>
<glyph name="f" format="2">
  <advance width="600"/>
  <unicode hex="0066"/>
  <guideline x="287" y="578" angle="78.0" identifier="NkpeIWGNrB"/>
  <outline>
    <contour>
      <point x="164" y="0" type="line"/>
      <point x="237" y="0" type="line"/>
      <point x="328" y="428" type="line"/>
      <point x="553" y="428" type="line"/>
      <point x="566" y="488" type="line"/>
      <point x="341" y="488" type="line"/>
      <point x="360" y="579" type="line" smooth="yes"/>
      <point x="375" y="650"/>
      <point x="409" y="675"/>
      <point x="474" y="675" type="curve" smooth="yes"/>
      <point x="513" y="675"/>
      <point x="551" y="667"/>
      <point x="596" y="645" type="curve"/>
      <point x="609" y="711" type="line"/>
      <point x="565" y="731"/>
      <point x="523" y="740"/>
      <point x="481" y="740" type="curve" smooth="yes"/>
      <point x="376" y="740"/>
      <point x="310" y="691"/>
      <point x="290" y="596" type="curve" smooth="yes"/>
      <point x="267" y="488" type="line"/>
      <point x="101" y="488" type="line"/>
      <point x="88" y="428" type="line"/>
      <point x="254" y="428" type="line"/>
    </contour>
  </outline>
</glyph>
<glyph name="g" format="2">
  <advance width="600"/>
  <unicode hex="0067"/>
  <anchor x="335" y="488" name="top"/>
  <outline>
    <contour>
      <point x="243" y="-219" type="curve" smooth="yes"/>
      <point x="349" y="-219"/>
      <point x="420" y="-160"/>
      <point x="443" y="-52" type="curve" smooth="yes"/>
      <point x="558" y="488" type="line"/>
      <point x="487" y="488" type="line"/>
      <point x="471" y="410" type="line"/>
      <point x="437" y="464"/>
      <point x="382" y="494"/>
      <point x="314" y="494" type="curve" smooth="yes"/>
      <point x="175" y="494"/>
      <point x="61" y="368"/>
      <point x="61" y="215" type="curve" smooth="yes"/>
      <point x="61" y="88"/>
      <point x="143" y="-6"/>
      <point x="253" y="-6" type="curve"/>
      <point x="307" y="-6"/>
      <point x="356" y="14"/>
      <point x="394" y="50" type="curve"/>
      <point x="374" y="-46" type="line" smooth="yes"/>
      <point x="359" y="-116"/>
      <point x="311" y="-155"/>
      <point x="239" y="-155" type="curve" smooth="yes"/>
      <point x="184" y="-155"/>
      <point x="129" y="-135"/>
      <point x="72" y="-93" type="curve"/>
      <point x="34" y="-148" type="line"/>
      <point x="89" y="-192"/>
      <point x="172" y="-219"/>
    </contour>
    <contour>
      <point x="282" y="56" type="curve"/>
      <point x="193" y="56"/>
      <point x="132" y="123"/>
      <point x="132" y="221" type="curve" smooth="yes"/>
      <point x="132" y="338"/>
      <point x="216" y="430"/>
      <point x="323" y="430" type="curve" smooth="yes"/>
      <point x="380" y="430"/>
      <point x="434" y="399"/>
      <point x="458" y="352" type="curve"/>
      <point x="407" y="108" type="line"/>
      <point x="371" y="74"/>
      <point x="328" y="56"/>
    </contour>
  </outline>
</glyph>
<glyph name="h" format="2">
  <advance width="600"/>
  <unicode hex="0068"/>
  <guideline x="190" y="679" angle="78.0" identifier="Ywkj6qlUvS"/>
  <anchor x="232" y="700" name="top"/>
  <outline>
    <contour>
      <point x="47" y="0" type="line"/>
      <point x="120" y="0" type="line"/>
      <point x="196" y="361" type="line"/>
      <point x="236" y="410"/>
      <point x="286" y="436"/>
      <point x="340" y="436" type="curve" smooth="yes"/>
      <point x="418" y="436"/>
      <point x="458" y="377"/>
      <point x="439" y="287" type="curve" smooth="yes"/>
      <point x="378" y="0" type="line"/>
      <point x="451" y="0" type="line"/>
      <point x="514" y="298" type="line" smooth="yes"/>
      <point x="539" y="415"/>
      <point x="479" y="496"/>
      <point x="370" y="496" type="curve" smooth="yes"/>
      <point x="308" y="496"/>
      <point x="253" y="468"/>
      <point x="207" y="412" type="curve"/>
      <point x="276" y="737" type="line"/>
      <point x="200" y="722" type="line"/>
    </contour>
  </outline>
</glyph>
<glyph name="l" format="2">
  <advance width="600"/>
  <unicode hex="006C"/>
  <guideline x="312" y="577" angle="78.0" color="0.999,0.001,0.001,0.999" identifier="fcRuPTquRh"/>
  <anchor x="372" y="700" name="top"/>
  <anchor x="355" y="0" name="bottom"/>
  <outline>
    <contour>
      <point x="357" y="-10" type="curve" smooth="yes"/>
      <point x="388" y="-10"/>
      <point x="422" y="-7"/>
      <point x="463" y="7" type="curve"/>
      <point x="477" y="73" type="line"/>
      <point x="434" y="58"/>
      <point x="405" y="55"/>
      <point x="371" y="55" type="curve" smooth="yes"/>
      <point x="306" y="55"/>
      <point x="279" y="85"/>
      <point x="294" y="153" type="curve" smooth="yes"/>
      <point x="417" y="727" type="line"/>
      <point x="163" y="727" type="line"/>
      <point x="150" y="667" type="line"/>
      <point x="331" y="667" type="line"/>
      <point x="222" y="156" type="line" smooth="yes"/>
      <point x="199" y="50"/>
      <point x="254" y="-10"/>
    </contour>
  </outline>
</glyph>
<glyph name="m" format="2">
  <advance width="600"/>
  <unicode hex="006D"/>
  <outline>
    <contour>
      <point x="15" y="0" type="line"/>
      <point x="83" y="0" type="line"/>
      <point x="170" y="406" type="line"/>
      <point x="189" y="429"/>
      <point x="211" y="441"/>
      <point x="238" y="441" type="curve" smooth="yes"/>
      <point x="279" y="441"/>
      <point x="304" y="404"/>
      <point x="293" y="352" type="curve" smooth="yes"/>
      <point x="218" y="0" type="line"/>
      <point x="286" y="0" type="line"/>
      <point x="362" y="359" type="line" smooth="yes"/>
      <point x="365" y="373"/>
      <point x="366" y="387"/>
      <point x="366" y="399" type="curve"/>
      <point x="386" y="427"/>
      <point x="410" y="441"/>
      <point x="438" y="441" type="curve" smooth="yes"/>
      <point x="479" y="441"/>
      <point x="504" y="404"/>
      <point x="493" y="352" type="curve" smooth="yes"/>
      <point x="418" y="0" type="line"/>
      <point x="486" y="0" type="line"/>
      <point x="562" y="359" type="line" smooth="yes"/>
      <point x="579" y="440"/>
      <point x="537" y="496"/>
      <point x="468" y="496" type="curve" smooth="yes"/>
      <point x="428" y="496"/>
      <point x="390" y="476"/>
      <point x="359" y="434" type="curve"/>
      <point x="346" y="473"/>
      <point x="313" y="496"/>
      <point x="268" y="496" type="curve" smooth="yes"/>
      <point x="236" y="496"/>
      <point x="206" y="481"/>
      <point x="179" y="450" type="curve"/>
      <point x="187" y="488" type="line"/>
      <point x="119" y="488" type="line"/>
    </contour>
  </outline>
</glyph>
<glyph name="p" format="2">
  <advance width="600"/>
  <unicode hex="0070"/>
  <outline>
    <contour>
      <point x="-6" y="-209" type="line"/>
      <point x="66" y="-209" type="line"/>
      <point x="128" y="79" type="line"/>
      <point x="161" y="24"/>
      <point x="217" y="-7"/>
      <point x="286" y="-7" type="curve" smooth="yes"/>
      <point x="425" y="-7"/>
      <point x="539" y="119"/>
      <point x="539" y="272" type="curve" smooth="yes"/>
      <point x="539" y="400"/>
      <point x="456" y="494"/>
      <point x="344" y="494" type="curve"/>
      <point x="289" y="494"/>
      <point x="241" y="473"/>
      <point x="203" y="435" type="curve"/>
      <point x="214" y="488" type="line"/>
      <point x="143" y="488" type="line"/>
    </contour>
    <contour>
      <point x="277" y="57" type="curve" smooth="yes"/>
      <point x="219" y="57"/>
      <point x="164" y="89"/>
      <point x="140" y="138" type="curve"/>
      <point x="192" y="379" type="line"/>
      <point x="227" y="413"/>
      <point x="271" y="432"/>
      <point x="318" y="432" type="curve"/>
      <point x="407" y="432"/>
      <point x="468" y="365"/>
      <point x="468" y="266" type="curve" smooth="yes"/>
      <point x="468" y="149"/>
      <point x="384" y="57"/>
    </contour>
  </outline>
</glyph>
<glyph name="q" format="2">
  <advance width="600"/>
  <unicode hex="0071"/>
  <outline>
    <contour>
      <point x="341" y="-209" type="line"/>
      <point x="414" y="-209" type="line"/>
      <point x="562" y="488" type="line"/>
      <point x="491" y="488" type="line"/>
      <point x="474" y="404" type="line"/>
      <point x="443" y="460"/>
      <point x="385" y="494"/>
      <point x="313" y="494" type="curve" smooth="yes"/>
      <point x="174" y="494"/>
      <point x="60" y="368"/>
      <point x="60" y="214" type="curve" smooth="yes"/>
      <point x="60" y="87"/>
      <point x="143" y="-7"/>
      <point x="255" y="-7" type="curve" smooth="yes"/>
      <point x="310" y="-7"/>
      <point x="358" y="14"/>
      <point x="396" y="51" type="curve"/>
    </contour>
    <contour>
      <point x="281" y="55" type="curve" smooth="yes"/>
      <point x="192" y="55"/>
      <point x="131" y="122"/>
      <point x="131" y="220" type="curve" smooth="yes"/>
      <point x="131" y="338"/>
      <point x="215" y="430"/>
      <point x="322" y="430" type="curve" smooth="yes"/>
      <point x="381" y="430"/>
      <point x="435" y="397"/>
      <point x="459" y="348" type="curve"/>
      <point x="409" y="109" type="line"/>
      <point x="373" y="74"/>
      <point x="328" y="55"/>
    </contour>
  </outline>
</glyph>
<glyph name="s" format="2">
  <advance width="600"/>
  <unicode hex="0073"/>
  <anchor x="312" y="488" name="top"/>
  <anchor x="270" y="0" name="bottom"/>
  <outline>
    <contour>
      <point x="284" y="-10" type="curve" smooth="yes"/>
      <point x="401" y="-10"/>
      <point x="483" y="53"/>
      <point x="483" y="140" type="curve"/>
      <point x="483" y="325"/>
      <point x="178" y="234"/>
      <point x="178" y="359" type="curve" smooth="yes"/>
      <point x="178" y="405"/>
      <point x="222" y="436"/>
      <point x="295" y="436" type="curve" smooth="yes"/>
      <point x="351" y="436"/>
      <point x="412" y="410"/>
      <point x="464" y="362" type="curve"/>
      <point x="507" y="412" type="line"/>
      <point x="447" y="470"/>
      <point x="371" y="496"/>
      <point x="292" y="496" type="curve" smooth="yes"/>
      <point x="179" y="496"/>
      <point x="113" y="437"/>
      <point x="113" y="352" type="curve" smooth="yes"/>
      <point x="113" y="167"/>
      <point x="415" y="256"/>
      <point x="415" y="136" type="curve"/>
      <point x="415" y="84"/>
      <point x="366" y="49"/>
      <point x="290" y="49" type="curve" smooth="yes"/>
      <point x="227" y="49"/>
      <point x="173" y="68"/>
      <point x="107" y="131" type="curve"/>
      <point x="63" y="84" type="line"/>
      <point x="118" y="25"/>
      <point x="200" y="-10"/>
    </contour>
  </outline>
</glyph>
<glyph name="t" format="2">
  <advance width="600"/>
  <unicode hex="0074"/>
  <anchor x="317" y="0" name="bottom"/>
  <outline>
    <contour>
      <point x="341" y="-10" type="curve" smooth="yes"/>
      <point x="380" y="-10"/>
      <point x="421" y="-2"/>
      <point x="460" y="14" type="curve"/>
      <point x="474" y="80" type="line"/>
      <point x="425" y="62"/>
      <point x="389" y="54"/>
      <point x="352" y="54" type="curve" smooth="yes"/>
      <point x="279" y="54"/>
      <point x="249" y="80"/>
      <point x="263" y="145" type="curve" smooth="yes"/>
      <point x="323" y="428" type="line"/>
      <point x="548" y="428" type="line"/>
      <point x="561" y="488" type="line"/>
      <point x="336" y="488" type="line"/>
      <point x="368" y="639" type="line"/>
      <point x="291" y="622" type="line"/>
      <point x="263" y="488" type="line"/>
      <point x="96" y="488" type="line"/>
      <point x="83" y="428" type="line"/>
      <point x="250" y="428" type="line"/>
      <point x="191" y="148" type="line" smooth="yes"/>
      <point x="171" y="53"/>
      <point x="227" y="-10"/>
    </contour>
  </outline>
</glyph>
<glyph name="w" format="2">
  <advance width="600"/>
  <unicode hex="0077"/>
  <anchor x="355" y="488" name="top"/>
  <outline>
    <contour>
      <point x="84" y="0" type="line"/>
      <point x="153" y="0" type="line"/>
      <point x="333" y="392" type="line"/>
      <point x="344" y="0" type="line"/>
      <point x="408" y="0" type="line"/>
      <point x="609" y="488" type="line"/>
      <point x="546" y="488" type="line"/>
      <point x="398" y="101" type="line"/>
      <point x="385" y="488" type="line"/>
      <point x="320" y="488" type="line"/>
      <point x="142" y="101" type="line"/>
      <point x="159" y="488" type="line"/>
      <point x="95" y="488" type="line"/>
    </contour>
  </outline>
</glyph>
<glyph name="bar" format="2">
  <advance width="600"/>
  <unicode hex="007C"/>
  <outline>
    <contour>
      <point x="170" y="-209" type="line"/>
      <point x="237" y="-209" type="line"/>
      <point x="431" y="700" type="line"/>
      <point x="364" y="700" type="line"/>
    </contour>
  </outline>
</glyph>
<glyph name="braceright" format="2">
  <advance width="600"/>
  <unicode hex="007D"/>
  <outline>
    <contour>
      <point x="344" y="711" type="curve" smooth="yes"/>
      <point x="305" y="711"/>
      <point x="270" y="701"/>
      <point x="230" y="681" type="curve"/>
      <point x="240" y="626" type="line"/>
      <point x="271" y="641"/>
      <point x="307" y="650"/>
      <point x="336" y="650" type="curve" smooth="yes"/>
      <point x="380" y="650"/>
      <point x="405" y="625"/>
      <point x="405" y="590" type="curve" smooth="yes"/>
      <point x="405" y="517"/>
      <point x="265" y="422"/>
      <point x="265" y="338" type="curve" smooth="yes"/>
      <point x="265" y="297"/>
      <point x="291" y="263"/>
      <point x="331" y="248" type="curve"/>
      <point x="270" y="234"/>
      <point x="221" y="187"/>
      <point x="221" y="119" type="curve" smooth="yes"/>
      <point x="221" y="54"/>
      <point x="271" y="-24"/>
      <point x="271" y="-77" type="curve" smooth="yes"/>
      <point x="271" y="-123"/>
      <point x="239" y="-159"/>
      <point x="180" y="-159" type="curve" smooth="yes"/>
      <point x="144" y="-159"/>
      <point x="111" y="-147"/>
      <point x="75" y="-125" type="curve"/>
      <point x="47" y="-180" type="line"/>
      <point x="91" y="-207"/>
      <point x="133" y="-219"/>
      <point x="181" y="-219" type="curve" smooth="yes"/>
      <point x="284" y="-219"/>
      <point x="338" y="-153"/>
      <point x="338" y="-77" type="curve" smooth="yes"/>
      <point x="338" y="-6"/>
      <point x="285" y="67"/>
      <point x="285" y="123" type="curve" smooth="yes"/>
      <point x="285" y="176"/>
      <point x="329" y="213"/>
      <point x="387" y="213" type="curve" smooth="yes"/>
      <point x="480" y="213" type="line"/>
      <point x="493" y="274" type="line"/>
      <point x="399" y="274" type="line" smooth="yes"/>
      <point x="355" y="274"/>
      <point x="328" y="300"/>
      <point x="328" y="335" type="curve" smooth="yes"/>
      <point x="328" y="410"/>
      <point x="478" y="498"/>
      <point x="478" y="603" type="curve" smooth="yes"/>
      <point x="478" y="665"/>
      <point x="430" y="711"/>
    </contour>
  </outline>
</glyph>
<glyph name="cent" format="2">
  <advance width="600"/>
  <unicode hex="00A2"/>
  <outline>
    <contour>
      <point x="202" y="-118" type="line"/>
      <point x="256" y="-118" type="line"/>
      <point x="279" y="-10" type="line"/>
      <point x="279" y="-10.0"/>
      <point x="280" y="-10.0"/>
      <point x="280" y="-10" type="curve"/>
      <point x="362" y="-10"/>
      <point x="438" y="25"/>
      <point x="488" y="87" type="curve"/>
      <point x="439" y="126" type="line"/>
      <point x="402" y="83"/>
      <point x="350" y="55"/>
      <point x="292" y="53" type="curve"/>
      <point x="372" y="427" type="line"/>
      <point x="418" y="416"/>
      <point x="450" y="384"/>
      <point x="470" y="337" type="curve"/>
      <point x="533" y="368" type="line"/>
      <point x="510" y="430"/>
      <point x="454" y="476"/>
      <point x="385" y="491" type="curve"/>
      <point x="410" y="606" type="line"/>
      <point x="356" y="606" type="line"/>
      <point x="333" y="496" type="line"/>
      <point x="187" y="496"/>
      <point x="66" y="370"/>
      <point x="66" y="212" type="curve" smooth="yes"/>
      <point x="66" y="102"/>
      <point x="130" y="19"/>
      <point x="226" y="-4" type="curve"/>
    </contour>
    <contour>
      <point x="136" y="215" type="curve" smooth="yes"/>
      <point x="136" y="330"/>
      <point x="217" y="425"/>
      <point x="319" y="432" type="curve"/>
      <point x="240" y="60" type="line"/>
      <point x="178" y="80"/>
      <point x="136" y="139"/>
    </contour>
  </outline>
</glyph>
<glyph name="sterling" format="2">
  <advance width="600"/>
  <unicode hex="00A3"/>
  <outline>
    <contour>
      <point x="380" y="-25" type="curve" smooth="yes"/>
      <point x="440" y="-25"/>
      <point x="489" y="1"/>
      <point x="523" y="53" type="curve"/>
      <point x="477" y="92" type="line"/>
      <point x="454" y="56"/>
      <point x="425" y="39"/>
      <point x="385" y="39" type="curve" smooth="yes"/>
      <point x="344" y="39"/>
      <point x="277" y="68"/>
      <point x="214" y="84" type="curve"/>
      <point x="246" y="112"/>
      <point x="262" y="161"/>
      <point x="262" y="223" type="curve" smooth="yes"/>
      <point x="262" y="237"/>
      <point x="261" y="261"/>
      <point x="260" y="289" type="curve"/>
      <point x="397" y="289" type="line"/>
      <point x="408" y="343" type="line"/>
      <point x="258" y="343" type="line"/>
      <point x="255" y="397"/>
      <point x="253" y="451"/>
      <point x="253" y="472" type="curve" smooth="yes"/>
      <point x="253" y="583"/>
      <point x="309" y="649"/>
      <point x="388" y="649" type="curve" smooth="yes"/>
      <point x="463" y="649"/>
      <point x="501" y="599"/>
      <point x="513" y="514" type="curve"/>
      <point x="578" y="528" type="line"/>
      <point x="558" y="648"/>
      <point x="498" y="711"/>
      <point x="389" y="711" type="curve" smooth="yes"/>
      <point x="269" y="711"/>
      <point x="183" y="615"/>
      <point x="183" y="464" type="curve" smooth="yes"/>
      <point x="183" y="441"/>
      <point x="186" y="393"/>
      <point x="188" y="343" type="curve"/>
      <point x="94" y="343" type="line"/>
      <point x="83" y="289" type="line"/>
      <point x="191" y="289" type="line"/>
      <point x="192" y="260"/>
      <point x="193" y="234"/>
      <point x="193" y="216" type="curve" smooth="yes"/>
      <point x="193" y="161"/>
      <point x="178" y="123"/>
      <point x="149" y="95" type="curve"/>
      <point x="88" y="95"/>
      <point x="39" y="68"/>
      <point x="-6" y="13" type="curve"/>
      <point x="40" y="-28" type="line"/>
      <point x="69" y="11"/>
      <point x="101" y="33"/>
      <point x="140" y="33" type="curve" smooth="yes"/>
      <point x="199" y="33"/>
      <point x="296" y="-25"/>
    </contour>
  </outline>
</glyph>
<glyph name="uni00A4" format="2">
  <advance width="600"/>
  <unicode hex="00A4"/>
  <outline>
    <contour>
      <point x="68" y="64" type="line"/>
      <point x="161" y="158" type="line"/>
      <point x="205" y="122"/>
      <point x="262" y="100"/>
      <point x="324" y="100" type="curve" smooth="yes"/>
      <point x="385" y="100"/>
      <point x="441" y="121"/>
      <point x="485" y="157" type="curve"/>
      <point x="579" y="63" type="line"/>
      <point x="619" y="104" type="line"/>
      <point x="525" y="199" type="line"/>
      <point x="559" y="243"/>
      <point x="579" y="299"/>
      <point x="579" y="361" type="curve" smooth="yes"/>
      <point x="579" y="424"/>
      <point x="558" y="480"/>
      <point x="523" y="524" type="curve"/>
      <point x="618" y="619" type="line"/>
      <point x="579" y="659" type="line"/>
      <point x="485" y="564" type="line"/>
      <point x="441" y="600"/>
      <point x="385" y="621"/>
      <point x="324" y="621" type="curve" smooth="yes"/>
      <point x="263" y="621"/>
      <point x="207" y="600"/>
      <point x="163" y="564" type="curve"/>
      <point x="69" y="659" type="line"/>
      <point x="29" y="618" type="line"/>
      <point x="123" y="523" type="line"/>
      <point x="88" y="479"/>
      <point x="68" y="423"/>
      <point x="68" y="361" type="curve" smooth="yes"/>
      <point x="68" y="299"/>
      <point x="88" y="242"/>
      <point x="122" y="198" type="curve"/>
      <point x="29" y="104" type="line"/>
    </contour>
    <contour>
      <point x="324" y="167" type="curve" smooth="yes"/>
      <point x="222" y="167"/>
      <point x="141" y="252"/>
      <point x="141" y="361" type="curve" smooth="yes"/>
      <point x="141" y="470"/>
      <point x="222" y="555"/>
      <point x="324" y="555" type="curve" smooth="yes"/>
      <point x="426" y="555"/>
      <point x="507" y="470"/>
      <point x="507" y="361" type="curve" smooth="yes"/>
      <point x="507" y="252"/>
      <point x="426" y="167"/>
    </contour>
  </outline>
</glyph>
<glyph name="section" format="2">
  <advance width="600"/>
  <unicode hex="00A7"/>
  <outline>
    <contour>
      <point x="263" y="-50" type="curve" smooth="yes"/>
      <point x="359" y="-50"/>
      <point x="425" y="9"/>
      <point x="425" y="95" type="curve" smooth="yes"/>
      <point x="425" y="128"/>
      <point x="414" y="156"/>
      <point x="390" y="179" type="curve"/>
      <point x="475" y="195"/>
      <point x="528" y="250"/>
      <point x="528" y="327" type="curve" smooth="yes"/>
      <point x="528" y="380"/>
      <point x="499" y="416"/>
      <point x="425" y="454" type="curve" smooth="yes"/>
      <point x="331" y="501" type="line" smooth="yes"/>
      <point x="293" y="520"/>
      <point x="276" y="543"/>
      <point x="276" y="574" type="curve" smooth="yes"/>
      <point x="276" y="623"/>
      <point x="313" y="655"/>
      <point x="369" y="655" type="curve" smooth="yes"/>
      <point x="415" y="655"/>
      <point x="464" y="635"/>
      <point x="518" y="594" type="curve"/>
      <point x="557" y="643" type="line"/>
      <point x="504" y="686"/>
      <point x="436" y="711"/>
      <point x="374" y="711" type="curve" smooth="yes"/>
      <point x="278" y="711"/>
      <point x="212" y="652"/>
      <point x="212" y="566" type="curve" smooth="yes"/>
      <point x="212" y="532"/>
      <point x="224" y="503"/>
      <point x="248" y="480" type="curve"/>
      <point x="163" y="464"/>
      <point x="109" y="409"/>
      <point x="109" y="335" type="curve" smooth="yes"/>
      <point x="109" y="281"/>
      <point x="138" y="245"/>
      <point x="212" y="207" type="curve" smooth="yes"/>
      <point x="306" y="160" type="line" smooth="yes"/>
      <point x="343" y="141"/>
      <point x="360" y="118"/>
      <point x="360" y="87" type="curve" smooth="yes"/>
      <point x="360" y="38"/>
      <point x="324" y="6"/>
      <point x="268" y="6" type="curve" smooth="yes"/>
      <point x="221" y="6"/>
      <point x="172" y="26"/>
      <point x="118" y="67" type="curve"/>
      <point x="79" y="18" type="line"/>
      <point x="132" y="-25"/>
      <point x="199" y="-50"/>
    </contour>
    <contour>
      <point x="338" y="216" type="curve"/>
      <point x="240" y="265" type="line" smooth="yes"/>
      <point x="194" y="288"/>
      <point x="173" y="314"/>
      <point x="173" y="349" type="curve" smooth="yes"/>
      <point x="173" y="403"/>
      <point x="227" y="441"/>
      <point x="302" y="443" type="curve"/>
      <point x="397" y="397" type="line" smooth="yes"/>
      <point x="443" y="373"/>
      <point x="464" y="347"/>
      <point x="464" y="313" type="curve" smooth="yes"/>
      <point x="464" y="258"/>
      <point x="412" y="219"/>
    </contour>
  </outline>
</glyph>
<glyph name="ordfeminine" format="2">
  <advance width="600"/>
  <unicode hex="00AA"/>
  <outline>
    <contour>
      <point x="290" y="319" type="curve" smooth="yes"/>
      <point x="331" y="319"/>
      <point x="369" y="332"/>
      <point x="406" y="358" type="curve"/>
      <point x="399" y="326" type="line"/>
      <point x="459" y="326" type="line"/>
      <point x="509" y="558" type="line" smooth="yes"/>
      <point x="528" y="649"/>
      <point x="473" y="711"/>
      <point x="371" y="711" type="curve" smooth="yes"/>
      <point x="331" y="711"/>
      <point x="288" y="702"/>
      <point x="234" y="681" type="curve"/>
      <point x="247" y="633" type="line"/>
      <point x="291" y="649"/>
      <point x="325" y="658"/>
      <point x="356" y="658" type="curve" smooth="yes"/>
      <point x="433" y="658"/>
      <point x="463" y="625"/>
      <point x="450" y="564" type="curve" smooth="yes"/>
      <point x="439" y="513" type="line"/>
      <point x="408" y="534"/>
      <point x="367" y="548"/>
      <point x="323" y="548" type="curve" smooth="yes"/>
      <point x="225" y="548"/>
      <point x="160" y="496"/>
      <point x="160" y="418" type="curve" smooth="yes"/>
      <point x="160" y="360"/>
      <point x="210" y="319"/>
    </contour>
    <contour>
      <point x="311" y="367" type="curve" smooth="yes"/>
      <point x="255" y="367"/>
      <point x="221" y="390"/>
      <point x="221" y="428" type="curve" smooth="yes"/>
      <point x="221" y="473"/>
      <point x="263" y="504"/>
      <point x="321" y="504" type="curve" smooth="yes"/>
      <point x="370" y="504"/>
      <point x="405" y="489"/>
      <point x="430" y="468" type="curve"/>
      <point x="415" y="400" type="line"/>
      <point x="384" y="377"/>
      <point x="349" y="367"/>
    </contour>
  </outline>
</glyph>
<glyph name="guillemotleft" format="2">
  <advance width="600"/>
  <unicode hex="00AB"/>
  <outline>
    <contour>
      <point x="200" y="0" type="line"/>
      <point x="273" y="0" type="line"/>
      <point x="101" y="239" type="line"/>
      <point x="378" y="488" type="line"/>
      <point x="295" y="488" type="line"/>
      <point x="20" y="245" type="line"/>
    </contour>
    <contour>
      <point x="424" y="0" type="line"/>
      <point x="497" y="0" type="line"/>
      <point x="325" y="239" type="line"/>
      <point x="602" y="488" type="line"/>
      <point x="519" y="488" type="line"/>
      <point x="244" y="245" type="line"/>
    </contour>
  </outline>
</glyph>
<glyph name="macron" format="2">
  <advance width="600"/>
  <unicode hex="00AF"/>
  <outline>
    <contour>
      <point x="248" y="631" type="line"/>
      <point x="516" y="631" type="line"/>
      <point x="527" y="683" type="line"/>
      <point x="259" y="683" type="line"/>
    </contour>
  </outline>
</glyph>
<glyph name="degree" format="2">
  <advance width="600"/>
  <unicode hex="00B0"/>
  <outline>
    <contour>
      <point x="348" y="424" type="curve" smooth="yes"/>
      <point x="439" y="424"/>
      <point x="513" y="500"/>
      <point x="513" y="593" type="curve" smooth="yes"/>
      <point x="513" y="658"/>
      <point x="457" y="710"/>
      <point x="389" y="710" type="curve" smooth="yes"/>
      <point x="298" y="710"/>
      <point x="224" y="634"/>
      <point x="224" y="541" type="curve" smooth="yes"/>
      <point x="224" y="476"/>
      <point x="280" y="424"/>
    </contour>
    <contour>
      <point x="349" y="472" type="curve" smooth="yes"/>
      <point x="308" y="472"/>
      <point x="274" y="506"/>
      <point x="274" y="548" type="curve" smooth="yes"/>
      <point x="274" y="610"/>
      <point x="325" y="661"/>
      <point x="388" y="661" type="curve" smooth="yes"/>
      <point x="429" y="661"/>
      <point x="463" y="627"/>
      <point x="463" y="585" type="curve" smooth="yes"/>
      <point x="463" y="523"/>
      <point x="412" y="472"/>
    </contour>
  </outline>
</glyph>
<glyph name="periodcentered" format="2">
  <advance width="600"/>
  <unicode hex="00B7"/>
  <outline>
    <contour>
      <point x="304" y="228" type="curve" smooth="yes"/>
      <point x="341" y="228"/>
      <point x="374" y="263"/>
      <point x="374" y="300" type="curve" smooth="yes"/>
      <point x="374" y="333"/>
      <point x="349" y="358"/>
      <point x="317" y="358" type="curve" smooth="yes"/>
      <point x="279" y="358"/>
      <point x="246" y="324"/>
      <point x="246" y="286" type="curve" smooth="yes"/>
      <point x="246" y="253"/>
      <point x="271" y="228"/>
    </contour>
  </outline>
</glyph>
<glyph name="onequarter" format="2">
  <advance width="600"/>
  <unicode hex="00BC"/>
  <outline>
    <contour>
      <point x="144" y="416" type="line"/>
      <point x="194" y="416" type="line"/>
      <point x="254" y="700" type="line"/>
      <point x="223" y="700" type="line"/>
      <point x="144" y="670" type="line"/>
      <point x="135" y="626" type="line"/>
      <point x="193" y="647" type="line"/>
    </contour>
    <contour>
      <point x="416" y="0" type="line"/>
      <point x="466" y="0" type="line"/>
      <point x="480" y="68" type="line"/>
      <point x="514" y="68" type="line"/>
      <point x="523" y="109" type="line"/>
      <point x="489" y="109" type="line"/>
      <point x="526" y="284" type="line"/>
      <point x="469" y="284" type="line"/>
      <point x="282" y="109" type="line"/>
      <point x="273" y="68" type="line"/>
      <point x="430" y="68" type="line"/>
    </contour>
    <contour>
      <point x="333" y="109" type="line"/>
      <point x="465" y="232" type="line"/>
      <point x="439" y="109" type="line"/>
    </contour>
    <component base="fraction" xOffset="15"/>
  </outline>
</glyph>
<glyph name="onehalf" format="2">
  <advance width="600"/>
  <unicode hex="00BD"/>
  <outline>
    <contour>
      <point x="144" y="416" type="line"/>
      <point x="194" y="416" type="line"/>
      <point x="254" y="700" type="line"/>
      <point x="223" y="700" type="line"/>
      <point x="144" y="670" type="line"/>
      <point x="135" y="626" type="line"/>
      <point x="193" y="647" type="line"/>
    </contour>
    <contour>
      <point x="288" y="0" type="line"/>
      <point x="487" y="0" type="line"/>
      <point x="496" y="43" type="line"/>
      <point x="364" y="43" type="line"/>
      <point x="460" y="114" type="line" smooth="yes"/>
      <point x="510" y="151"/>
      <point x="527" y="180"/>
      <point x="527" y="217" type="curve" smooth="yes"/>
      <point x="527" y="259"/>
      <point x="494" y="288"/>
      <point x="441" y="288" type="curve" smooth="yes"/>
      <point x="406" y="288"/>
      <point x="368" y="273"/>
      <point x="326" y="242" type="curve"/>
      <point x="351" y="209" type="line"/>
      <point x="387" y="237"/>
      <point x="409" y="243"/>
      <point x="434" y="243" type="curve" smooth="yes"/>
      <point x="461" y="243"/>
      <point x="478" y="227"/>
      <point x="478" y="205" type="curve" smooth="yes"/>
      <point x="478" y="185"/>
      <point x="465" y="170"/>
      <point x="432" y="144" type="curve" smooth="yes"/>
      <point x="295" y="36" type="line"/>
    </contour>
    <component base="fraction" xOffset="15"/>
  </outline>
</glyph>
<glyph name="threequarters" format="2">
  <advance width="600"/>
  <unicode hex="00BE"/>
  <outline>
    <contour>
      <point x="181" y="413" type="curve" smooth="yes"/>
      <point x="245" y="413"/>
      <point x="297" y="451"/>
      <point x="297" y="501" type="curve" smooth="yes"/>
      <point x="297" y="529"/>
      <point x="276" y="551"/>
      <point x="244" y="559" type="curve"/>
      <point x="288" y="567"/>
      <point x="317" y="599"/>
      <point x="317" y="636" type="curve" smooth="yes"/>
      <point x="317" y="676"/>
      <point x="279" y="705"/>
      <point x="225" y="705" type="curve" smooth="yes"/>
      <point x="189" y="705"/>
      <point x="150" y="692"/>
      <point x="118" y="669" type="curve"/>
      <point x="141" y="633" type="line"/>
      <point x="170" y="653"/>
      <point x="193" y="660"/>
      <point x="217" y="660" type="curve" smooth="yes"/>
      <point x="243" y="660"/>
      <point x="265" y="646"/>
      <point x="265" y="626" type="curve" smooth="yes"/>
      <point x="265" y="598"/>
      <point x="238" y="578"/>
      <point x="201" y="578" type="curve" smooth="yes"/>
      <point x="178" y="578" type="line"/>
      <point x="170" y="538" type="line"/>
      <point x="198" y="538" type="line" smooth="yes"/>
      <point x="229" y="538"/>
      <point x="248" y="525"/>
      <point x="248" y="504" type="curve" smooth="yes"/>
      <point x="248" y="479"/>
      <point x="225" y="457"/>
      <point x="184" y="457" type="curve" smooth="yes"/>
      <point x="152" y="457"/>
      <point x="128" y="469"/>
      <point x="107" y="490" type="curve"/>
      <point x="73" y="455" type="line"/>
      <point x="100" y="427"/>
      <point x="137" y="413"/>
    </contour>
    <contour>
      <point x="415" y="0" type="line"/>
      <point x="465" y="0" type="line"/>
      <point x="479" y="68" type="line"/>
      <point x="513" y="68" type="line"/>
      <point x="522" y="109" type="line"/>
      <point x="488" y="109" type="line"/>
      <point x="525" y="284" type="line"/>
      <point x="468" y="284" type="line"/>
      <point x="281" y="109" type="line"/>
      <point x="272" y="68" type="line"/>
      <point x="429" y="68" type="line"/>
    </contour>
    <contour>
      <point x="332" y="109" type="line"/>
      <point x="464" y="232" type="line"/>
      <point x="438" y="109" type="line"/>
    </contour>
    <component base="fraction" xOffset="35"/>
  </outline>
</glyph>
<glyph name="questiondown" format="2">
  <advance width="600"/>
  <unicode hex="00BF"/>
  <outline>
    <contour>
      <point x="366" y="273" type="curve"/>
      <point x="304" y="273" type="line"/>
      <point x="283" y="102"/>
      <point x="33" y="142"/>
      <point x="33" y="-64" type="curve" smooth="yes"/>
      <point x="33" y="-152"/>
      <point x="111" y="-219"/>
      <point x="223" y="-219" type="curve" smooth="yes"/>
      <point x="300" y="-219"/>
      <point x="378" y="-183"/>
      <point x="440" y="-118" type="curve"/>
      <point x="392" y="-74" type="line"/>
      <point x="343" y="-124"/>
      <point x="285" y="-153"/>
      <point x="227" y="-153" type="curve" smooth="yes"/>
      <point x="154" y="-153"/>
      <point x="104" y="-113"/>
      <point x="104" y="-57" type="curve" smooth="yes"/>
      <point x="104" y="95"/>
      <point x="350" y="71"/>
    </contour>
    <contour>
      <point x="371" y="497" type="curve" smooth="yes"/>
      <point x="334" y="497"/>
      <point x="301" y="462"/>
      <point x="301" y="425" type="curve" smooth="yes"/>
      <point x="301" y="392"/>
      <point x="326" y="367"/>
      <point x="358" y="367" type="curve" smooth="yes"/>
      <point x="396" y="367"/>
      <point x="429" y="401"/>
      <point x="429" y="439" type="curve" smooth="yes"/>
      <point x="429" y="472"/>
      <point x="404" y="497"/>
    </contour>
  </outline>
</glyph>
<glyph name="AE" format="2">
  <advance width="600"/>
  <unicode hex="00C6"/>
  <outline>
    <contour>
      <point x="-30" y="0" type="line"/>
      <point x="49" y="0" type="line"/>
      <point x="139" y="170" type="line"/>
      <point x="283" y="170" type="line"/>
      <point x="247" y="0" type="line"/>
      <point x="536" y="0" type="line"/>
      <point x="550" y="67" type="line"/>
      <point x="336" y="67" type="line"/>
      <point x="390" y="320" type="line"/>
      <point x="527" y="320" type="line"/>
      <point x="541" y="387" type="line"/>
      <point x="404" y="387" type="line"/>
      <point x="456" y="633" type="line"/>
      <point x="666" y="633" type="line"/>
      <point x="680" y="700" type="line"/>
      <point x="350" y="700" type="line"/>
    </contour>
    <contour>
      <point x="171" y="231" type="line"/>
      <point x="379" y="625" type="line"/>
      <point x="296" y="231" type="line"/>
    </contour>
  </outline>
</glyph>
<glyph name="Ccedilla" format="2">
  <advance width="600"/>
  <unicode hex="00C7"/>
  <outline>
    <contour>
      <point x="244" y="-239" type="curve"/>
      <point x="310" y="-239"/>
      <point x="360" y="-195"/>
      <point x="360" y="-138" type="curve"/>
      <point x="360" y="-99"/>
      <point x="330" y="-70"/>
      <point x="279" y="-66" type="curve"/>
      <point x="303" y="-11" type="line"/>
      <point x="419" y="-5"/>
      <point x="512" y="74"/>
      <point x="563" y="204" type="curve"/>
      <point x="492" y="227" type="line"/>
      <point x="454" y="119"/>
      <point x="377" y="59"/>
      <point x="295" y="59" type="curve" smooth="yes"/>
      <point x="202" y="59"/>
      <point x="136" y="144"/>
      <point x="136" y="292" type="curve" smooth="yes"/>
      <point x="136" y="500"/>
      <point x="237" y="641"/>
      <point x="357" y="641" type="curve" smooth="yes"/>
      <point x="439" y="641"/>
      <point x="502" y="581"/>
      <point x="518" y="473" type="curve"/>
      <point x="593" y="496" type="line"/>
      <point x="570" y="631"/>
      <point x="485" y="711"/>
      <point x="361" y="711" type="curve" smooth="yes"/>
      <point x="201" y="711"/>
      <point x="58" y="546"/>
      <point x="58" y="286" type="curve" smooth="yes"/>
      <point x="58" y="108"/>
      <point x="142" y="5"/>
      <point x="262" y="-9" type="curve"/>
      <point x="222" y="-99" type="line"/>
      <point x="250" y="-99" type="line" smooth="yes"/>
      <point x="290" y="-99"/>
      <point x="314" y="-116"/>
      <point x="314" y="-144" type="curve"/>
      <point x="314" y="-177"/>
      <point x="286" y="-199"/>
      <point x="242" y="-199" type="curve"/>
      <point x="213" y="-199"/>
      <point x="189" y="-189"/>
      <point x="169" y="-167" type="curve"/>
      <point x="138" y="-197" type="line"/>
      <point x="160" y="-224"/>
      <point x="199" y="-239"/>
    </contour>
  </outline>
</glyph>
<glyph name="multiply" format="2">
  <advance width="600"/>
  <unicode hex="00D7"/>
  <outline>
    <contour>
      <point x="134" y="161" type="line"/>
      <point x="314" y="317" type="line"/>
      <point x="427" y="161" type="line"/>
      <point x="475" y="200" type="line"/>
      <point x="360" y="357" type="line"/>
      <point x="544" y="516" type="line"/>
      <point x="511" y="557" type="line"/>
      <point x="330" y="399" type="line"/>
      <point x="216" y="555" type="line"/>
      <point x="171" y="516" type="line"/>
      <point x="284" y="359" type="line"/>
      <point x="104" y="202" type="line"/>
    </contour>
  </outline>
</glyph>
<glyph name="Oslash" format="2">
  <advance width="600"/>
  <unicode hex="00D8"/>
  <outline>
    <contour>
      <point x="-24" y="0" type="line"/>
      <point x="56" y="0" type="line"/>
      <point x="114" y="67" type="line"/>
      <point x="155" y="15"/>
      <point x="213" y="-11"/>
      <point x="280" y="-11" type="curve" smooth="yes"/>
      <point x="443" y="-11"/>
      <point x="588" y="180"/>
      <point x="588" y="430" type="curve" smooth="yes"/>
      <point x="588" y="488"/>
      <point x="579" y="537"/>
      <point x="562" y="578" type="curve"/>
      <point x="669" y="700" type="line"/>
      <point x="589" y="700" type="line"/>
      <point x="530" y="633" type="line"/>
      <point x="490" y="685"/>
      <point x="431" y="711"/>
      <point x="364" y="711" type="curve" smooth="yes"/>
      <point x="201" y="711"/>
      <point x="56" y="520"/>
      <point x="56" y="270" type="curve" smooth="yes"/>
      <point x="56" y="211"/>
      <point x="65" y="162"/>
      <point x="83" y="122" type="curve"/>
    </contour>
    <contour>
      <point x="132" y="274" type="curve" smooth="yes"/>
      <point x="132" y="478"/>
      <point x="239" y="641"/>
      <point x="362" y="641" type="curve" smooth="yes"/>
      <point x="411" y="641"/>
      <point x="451" y="618"/>
      <point x="478" y="573" type="curve"/>
      <point x="141" y="189" type="line"/>
      <point x="135" y="214"/>
      <point x="132" y="242"/>
    </contour>
    <contour>
      <point x="278" y="59" type="curve" smooth="yes"/>
      <point x="231" y="59"/>
      <point x="192" y="82"/>
      <point x="166" y="125" type="curve"/>
      <point x="503" y="510" type="line"/>
      <point x="509" y="485"/>
      <point x="512" y="457"/>
      <point x="512" y="426" type="curve" smooth="yes"/>
      <point x="512" y="222"/>
      <point x="403" y="59"/>
    </contour>
  </outline>
</glyph>
<glyph name="ae" format="2">
  <advance width="600"/>
  <unicode hex="00E6"/>
  <outline>
    <contour>
      <point x="318" y="280" type="line"/>
      <point x="342" y="377"/>
      <point x="401" y="434"/>
      <point x="448" y="434" type="curve" smooth="yes"/>
      <point x="502" y="434"/>
      <point x="527" y="373"/>
      <point x="514" y="280" type="curve"/>
    </contour>
    <contour>
      <point x="146" y="46" type="curve" smooth="yes"/>
      <point x="98" y="46"/>
      <point x="73" y="78"/>
      <point x="73" y="127" type="curve" smooth="yes"/>
      <point x="73" y="184"/>
      <point x="111" y="232"/>
      <point x="171" y="232" type="curve" smooth="yes"/>
      <point x="200" y="232"/>
      <point x="221" y="224"/>
      <point x="240" y="212" type="curve"/>
      <point x="239" y="202"/>
      <point x="239" y="193"/>
      <point x="239" y="184" type="curve" smooth="yes"/>
      <point x="239" y="155"/>
      <point x="243" y="129"/>
      <point x="250" y="106" type="curve"/>
      <point x="220" y="70"/>
      <point x="182" y="46"/>
    </contour>
    <contour>
      <point x="131" y="-10" type="curve" smooth="yes"/>
      <point x="184" y="-10"/>
      <point x="230" y="16"/>
      <point x="269" y="63" type="curve"/>
      <point x="298" y="17"/>
      <point x="345" y="-10"/>
      <point x="404" y="-10" type="curve" smooth="yes"/>
      <point x="445" y="-10"/>
      <point x="486" y="1"/>
      <point x="528" y="26" type="curve"/>
      <point x="500" y="83" type="line"/>
      <point x="470" y="63"/>
      <point x="435" y="54"/>
      <point x="405" y="54" type="curve" smooth="yes"/>
      <point x="346" y="54"/>
      <point x="307" y="107"/>
      <point x="307" y="188" type="curve" smooth="yes"/>
      <point x="307" y="202"/>
      <point x="308" y="215"/>
      <point x="309" y="228" type="curve"/>
      <point x="567" y="228" type="line"/>
      <point x="576" y="277"/>
      <point x="580" y="307"/>
      <point x="580" y="330" type="curve" smooth="yes"/>
      <point x="580" y="429"/>
      <point x="536" y="496"/>
      <point x="456" y="496" type="curve" smooth="yes"/>
      <point x="410" y="496"/>
      <point x="364" y="471"/>
      <point x="326" y="427" type="curve"/>
      <point x="307" y="471"/>
      <point x="261" y="496"/>
      <point x="205" y="496" type="curve" smooth="yes"/>
      <point x="161" y="496"/>
      <point x="112" y="479"/>
      <point x="67" y="443" type="curve"/>
      <point x="98" y="392" type="line"/>
      <point x="135" y="419"/>
      <point x="171" y="435"/>
      <point x="205" y="435" type="curve" smooth="yes"/>
      <point x="253" y="435"/>
      <point x="278" y="402"/>
      <point x="264" y="338" type="curve" smooth="yes"/>
      <point x="248" y="261" type="line"/>
      <point x="223" y="275"/>
      <point x="196" y="283"/>
      <point x="165" y="283" type="curve" smooth="yes"/>
      <point x="68" y="283"/>
      <point x="5" y="209"/>
      <point x="5" y="119" type="curve" smooth="yes"/>
      <point x="5" y="36"/>
      <point x="65" y="-10"/>
    </contour>
  </outline>
</glyph>
<glyph name="ccedilla" format="2">
  <advance width="600"/>
  <unicode hex="00E7"/>
  <outline>
    <contour>
      <point x="238" y="-239" type="curve"/>
      <point x="304" y="-239"/>
      <point x="354" y="-195"/>
      <point x="354" y="-138" type="curve"/>
      <point x="354" y="-99"/>
      <point x="324" y="-70"/>
      <point x="273" y="-66" type="curve"/>
      <point x="298" y="-9" type="line"/>
      <point x="373" y="-5"/>
      <point x="442" y="30"/>
      <point x="488" y="87" type="curve"/>
      <point x="439" y="126" type="line"/>
      <point x="401" y="82"/>
      <point x="347" y="53"/>
      <point x="287" y="53" type="curve" smooth="yes"/>
      <point x="200" y="53"/>
      <point x="136" y="121"/>
      <point x="136" y="215" type="curve" smooth="yes"/>
      <point x="136" y="334"/>
      <point x="223" y="432"/>
      <point x="330" y="432" type="curve" smooth="yes"/>
      <point x="399" y="432"/>
      <point x="445" y="397"/>
      <point x="470" y="337" type="curve"/>
      <point x="533" y="368" type="line"/>
      <point x="504" y="445"/>
      <point x="426" y="496"/>
      <point x="335" y="496" type="curve" smooth="yes"/>
      <point x="187" y="496"/>
      <point x="66" y="370"/>
      <point x="66" y="212" type="curve" smooth="yes"/>
      <point x="66" y="90"/>
      <point x="144" y="2"/>
      <point x="256" y="-9" type="curve"/>
      <point x="216" y="-99" type="line"/>
      <point x="244" y="-99" type="line" smooth="yes"/>
      <point x="284" y="-99"/>
      <point x="308" y="-116"/>
      <point x="308" y="-144" type="curve"/>
      <point x="308" y="-177"/>
      <point x="280" y="-199"/>
      <point x="236" y="-199" type="curve"/>
      <point x="207" y="-199"/>
      <point x="183" y="-189"/>
      <point x="163" y="-167" type="curve"/>
      <point x="132" y="-197" type="line"/>
      <point x="154" y="-224"/>
      <point x="193" y="-239"/>
    </contour>
  </outline>
</glyph>
<glyph name="thorn" format="2">
  <advance width="600"/>
  <unicode hex="00FE"/>
  <outline>
    <contour>
      <point x="-6" y="-209" type="line"/>
      <point x="67" y="-209" type="line"/>
      <point x="128" y="78" type="line"/>
      <point x="162" y="24"/>
      <point x="218" y="-7"/>
      <point x="286" y="-7" type="curve" smooth="yes"/>
      <point x="425" y="-7"/>
      <point x="539" y="119"/>
      <point x="539" y="272" type="curve" smooth="yes"/>
      <point x="539" y="400"/>
      <point x="456" y="494"/>
      <point x="344" y="494" type="curve" smooth="yes"/>
      <point x="290" y="494"/>
      <point x="243" y="474"/>
      <point x="205" y="438" type="curve"/>
      <point x="269" y="737" type="line"/>
      <point x="193" y="722" type="line"/>
    </contour>
    <contour>
      <point x="277" y="57" type="curve" smooth="yes"/>
      <point x="219" y="57"/>
      <point x="165" y="89"/>
      <point x="141" y="136" type="curve"/>
      <point x="193" y="380" type="line"/>
      <point x="228" y="413"/>
      <point x="272" y="432"/>
      <point x="318" y="432" type="curve" smooth="yes"/>
      <point x="407" y="432"/>
      <point x="468" y="365"/>
      <point x="468" y="266" type="curve" smooth="yes"/>
      <point x="468" y="149"/>
      <point x="384" y="57"/>
    </contour>
  </outline>
</glyph>
<glyph name="aogonek" format="2">
  <advance width="600"/>
  <unicode hex="0105"/>
  <outline>
    <contour>
      <point x="347" y="-232" type="curve" smooth="yes"/>
      <point x="371" y="-232"/>
      <point x="395" y="-227"/>
      <point x="413" y="-218" type="curve"/>
      <point x="409" y="-178" type="line"/>
      <point x="396" y="-183"/>
      <point x="377" y="-187"/>
      <point x="363" y="-187" type="curve" smooth="yes"/>
      <point x="328" y="-187"/>
      <point x="303" y="-168"/>
      <point x="303" y="-139" type="curve" smooth="yes"/>
      <point x="303" y="-92"/>
      <point x="345" y="-48"/>
      <point x="434" y="0" type="curve"/>
      <point x="502" y="305" type="line" smooth="yes"/>
      <point x="527" y="418"/>
      <point x="457" y="496"/>
      <point x="331" y="496" type="curve" smooth="yes"/>
      <point x="270" y="496"/>
      <point x="212" y="481"/>
      <point x="149" y="451" type="curve"/>
      <point x="170" y="395" type="line"/>
      <point x="229" y="422"/>
      <point x="276" y="436"/>
      <point x="319" y="436" type="curve" smooth="yes"/>
      <point x="412" y="436"/>
      <point x="450" y="389"/>
      <point x="430" y="299" type="curve" smooth="yes"/>
      <point x="416" y="238" type="line"/>
      <point x="374" y="269"/>
      <point x="315" y="285"/>
      <point x="254" y="285" type="curve" smooth="yes"/>
      <point x="136" y="285"/>
      <point x="57" y="221"/>
      <point x="57" y="126" type="curve" smooth="yes"/>
      <point x="57" y="44"/>
      <point x="125" y="-10"/>
      <point x="225" y="-10" type="curve" smooth="yes"/>
      <point x="277" y="-10"/>
      <point x="325" y="6"/>
      <point x="372" y="42" type="curve"/>
      <point x="363" y="0" type="line"/>
      <point x="374" y="0" type="line"/>
      <point x="292" y="-48"/>
      <point x="252" y="-99"/>
      <point x="252" y="-154" type="curve" smooth="yes"/>
      <point x="252" y="-201"/>
      <point x="290" y="-232"/>
    </contour>
    <contour>
      <point x="243" y="45" type="curve" smooth="yes"/>
      <point x="170" y="45"/>
      <point x="126" y="78"/>
      <point x="126" y="131" type="curve" smooth="yes"/>
      <point x="126" y="191"/>
      <point x="181" y="231"/>
      <point x="261" y="231" type="curve" smooth="yes"/>
      <point x="321" y="231"/>
      <point x="368" y="218"/>
      <point x="405" y="189" type="curve"/>
      <point x="384" y="94" type="line"/>
      <point x="340" y="60"/>
      <point x="295" y="45"/>
    </contour>
  </outline>
</glyph>
<glyph name="Eogonek" format="2">
  <advance width="600"/>
  <unicode hex="0118"/>
  <outline>
    <contour>
      <point x="45" y="0" type="line"/>
      <point x="427" y="0" type="line"/>
      <point x="345" y="-48"/>
      <point x="305" y="-99"/>
      <point x="305" y="-154" type="curve" smooth="yes"/>
      <point x="305" y="-201"/>
      <point x="343" y="-232"/>
      <point x="400" y="-232" type="curve" smooth="yes"/>
      <point x="424" y="-232"/>
      <point x="448" y="-227"/>
      <point x="466" y="-218" type="curve"/>
      <point x="462" y="-178" type="line"/>
      <point x="449" y="-183"/>
      <point x="430" y="-187"/>
      <point x="416" y="-187" type="curve" smooth="yes"/>
      <point x="381" y="-187"/>
      <point x="356" y="-168"/>
      <point x="356" y="-139" type="curve" smooth="yes"/>
      <point x="356" y="-92"/>
      <point x="398" y="-48"/>
      <point x="487" y="0" type="curve"/>
      <point x="501" y="67" type="line"/>
      <point x="136" y="67" type="line"/>
      <point x="190" y="320" type="line"/>
      <point x="431" y="320" type="line"/>
      <point x="445" y="387" type="line"/>
      <point x="204" y="387" type="line"/>
      <point x="257" y="633" type="line"/>
      <point x="617" y="633" type="line"/>
      <point x="632" y="700" type="line"/>
      <point x="194" y="700" type="line"/>
    </contour>
  </outline>
</glyph>
<glyph name="gcommaaccent" format="2">
  <advance width="600"/>
  <unicode hex="0123"/>
  <outline>
    <contour>
      <point x="472" y="797" type="line"/>
      <point x="419" y="797" type="line"/>
      <point x="308" y="610" type="line"/>
      <point x="385" y="610" type="line"/>
    </contour>
    <component base="g"/>
  </outline>
</glyph>
<glyph name="hcircumflex" format="2">
  <advance width="600"/>
  <unicode hex="0125"/>
  <guideline x="191" y="676" angle="78.0" identifier="27ulxTKCfc"/>
  <outline>
    <contour>
      <point x="47" y="0" type="line"/>
      <point x="120" y="0" type="line"/>
      <point x="197" y="361" type="line"/>
      <point x="236" y="410"/>
      <point x="286" y="436"/>
      <point x="340" y="436" type="curve" smooth="yes"/>
      <point x="418" y="436"/>
      <point x="458" y="377"/>
      <point x="439" y="287" type="curve" smooth="yes"/>
      <point x="378" y="0" type="line"/>
      <point x="451" y="0" type="line"/>
      <point x="514" y="298" type="line" smooth="yes"/>
      <point x="539" y="415"/>
      <point x="479" y="496"/>
      <point x="370" y="496" type="curve" smooth="yes"/>
      <point x="309" y="496"/>
      <point x="254" y="468"/>
      <point x="208" y="413" type="curve"/>
      <point x="275" y="727" type="line"/>
      <point x="202" y="727" type="line"/>
    </contour>
    <component base="circumflex" xOffset="-120" yOffset="212"/>
  </outline>
</glyph>
<glyph name="Hbar" format="2">
  <advance width="600"/>
  <unicode hex="0126"/>
  <outline>
    <contour>
      <point x="20" y="0" type="line"/>
      <point x="97" y="0" type="line"/>
      <point x="165" y="319" type="line"/>
      <point x="467" y="319" type="line"/>
      <point x="399" y="0" type="line"/>
      <point x="476" y="0" type="line"/>
      <point x="587" y="521" type="line"/>
      <point x="654" y="521" type="line"/>
      <point x="667" y="582" type="line"/>
      <point x="600" y="582" type="line"/>
      <point x="625" y="700" type="line"/>
      <point x="548" y="700" type="line"/>
      <point x="523" y="582" type="line"/>
      <point x="221" y="582" type="line"/>
      <point x="246" y="700" type="line"/>
      <point x="169" y="700" type="line"/>
      <point x="144" y="582" type="line"/>
      <point x="77" y="582" type="line"/>
      <point x="64" y="521" type="line"/>
      <point x="131" y="521" type="line"/>
    </contour>
    <contour>
      <point x="179" y="386" type="line"/>
      <point x="208" y="521" type="line"/>
      <point x="510" y="521" type="line"/>
      <point x="481" y="386" type="line"/>
    </contour>
  </outline>
</glyph>
<glyph name="iogonek" format="2">
  <advance width="600"/>
  <unicode hex="012F"/>
  <outline>
    <contour>
      <point x="373" y="604" type="curve" smooth="yes"/>
      <point x="411" y="604"/>
      <point x="442" y="635"/>
      <point x="442" y="670" type="curve" smooth="yes"/>
      <point x="442" y="702"/>
      <point x="416" y="728"/>
      <point x="384" y="728" type="curve" smooth="yes"/>
      <point x="347" y="728"/>
      <point x="315" y="696"/>
      <point x="315" y="661" type="curve" smooth="yes"/>
      <point x="315" y="629"/>
      <point x="340" y="604"/>
    </contour>
    <contour>
      <point x="354" y="-232" type="curve" smooth="yes"/>
      <point x="378" y="-232"/>
      <point x="402" y="-227"/>
      <point x="420" y="-218" type="curve"/>
      <point x="416" y="-178" type="line"/>
      <point x="403" y="-183"/>
      <point x="384" y="-187"/>
      <point x="370" y="-187" type="curve" smooth="yes"/>
      <point x="335" y="-187"/>
      <point x="310" y="-168"/>
      <point x="310" y="-139" type="curve" smooth="yes"/>
      <point x="310" y="-94"/>
      <point x="349" y="-51"/>
      <point x="432" y="-5" type="curve"/>
      <point x="446" y="-2"/>
      <point x="461" y="2"/>
      <point x="477" y="7" type="curve"/>
      <point x="491" y="73" type="line"/>
      <point x="448" y="58"/>
      <point x="419" y="55"/>
      <point x="385" y="55" type="curve" smooth="yes"/>
      <point x="320" y="55"/>
      <point x="293" y="85"/>
      <point x="308" y="153" type="curve" smooth="yes"/>
      <point x="382" y="488" type="line"/>
      <point x="128" y="488" type="line"/>
      <point x="115" y="428" type="line"/>
      <point x="296" y="428" type="line"/>
      <point x="236" y="156" type="line" smooth="yes"/>
      <point x="213" y="52"/>
      <point x="266" y="-8"/>
      <point x="365" y="-10" type="curve"/>
      <point x="294" y="-55"/>
      <point x="259" y="-103"/>
      <point x="259" y="-154" type="curve" smooth="yes"/>
      <point x="259" y="-201"/>
      <point x="297" y="-232"/>
    </contour>
  </outline>
</glyph>
<glyph name="IJ" format="2">
  <advance width="600"/>
  <unicode hex="0132"/>
  <outline>
    <contour>
      <point x="323" y="-11" type="curve"/>
      <point x="438" y="-11"/>
      <point x="503" y="57"/>
      <point x="528" y="177" type="curve" smooth="yes"/>
      <point x="638" y="700" type="line"/>
      <point x="561" y="700" type="line"/>
      <point x="453" y="186" type="line" smooth="yes"/>
      <point x="434" y="95"/>
      <point x="397" y="59"/>
      <point x="323" y="59" type="curve"/>
      <point x="287" y="59"/>
      <point x="253" y="72"/>
      <point x="229" y="93" type="curve"/>
      <point x="187" y="37" type="line"/>
      <point x="213" y="9"/>
      <point x="266" y="-11"/>
    </contour>
    <contour>
      <point x="21" y="0" type="line"/>
      <point x="98" y="0" type="line"/>
      <point x="246" y="700" type="line"/>
      <point x="169" y="700" type="line"/>
    </contour>
  </outline>
</glyph>
<glyph name="kgreenlandic" format="2">
  <advance width="600"/>
  <unicode hex="0138"/>
  <outline>
    <contour>
      <point x="61" y="0" type="line"/>
      <point x="134" y="0" type="line"/>
      <point x="185" y="241" type="line"/>
      <point x="402" y="0" type="line"/>
      <point x="496" y="0" type="line"/>
      <point x="265" y="251" type="line"/>
      <point x="588" y="488" type="line"/>
      <point x="492" y="488" type="line"/>
      <point x="191" y="268" type="line"/>
      <point x="238" y="488" type="line"/>
      <point x="165" y="488" type="line"/>
    </contour>
  </outline>
</glyph>
<glyph name="Eng" format="2">
  <advance width="600"/>
  <unicode hex="014A"/>
  <outline>
    <contour>
      <point x="303" y="-219" type="curve" smooth="yes"/>
      <point x="392" y="-219"/>
      <point x="435" y="-168"/>
      <point x="455" y="-73" type="curve" smooth="yes"/>
      <point x="620" y="700" type="line"/>
      <point x="550" y="700" type="line"/>
      <point x="431" y="130" type="line"/>
      <point x="262" y="700" type="line"/>
      <point x="174" y="700" type="line"/>
      <point x="25" y="0" type="line"/>
      <point x="95" y="0" type="line"/>
      <point x="218" y="587" type="line"/>
      <point x="398" y="-18" type="line"/>
      <point x="389" y="-63" type="line" smooth="yes"/>
      <point x="376" y="-128"/>
      <point x="346" y="-154"/>
      <point x="299" y="-154" type="curve" smooth="yes"/>
      <point x="276" y="-154"/>
      <point x="251" y="-148"/>
      <point x="222" y="-138" type="curve"/>
      <point x="209" y="-201" type="line"/>
      <point x="237" y="-214"/>
      <point x="275" y="-219"/>
    </contour>
  </outline>
</glyph>
<glyph name="eng" format="2">
  <advance width="600"/>
  <unicode hex="014B"/>
  <outline>
    <contour>
      <point x="287" y="-219" type="curve" smooth="yes"/>
      <point x="367" y="-219"/>
      <point x="417" y="-175"/>
      <point x="432" y="-102" type="curve" smooth="yes"/>
      <point x="516" y="302" type="line" smooth="yes"/>
      <point x="540" y="415"/>
      <point x="480" y="496"/>
      <point x="370" y="496" type="curve" smooth="yes"/>
      <point x="309" y="496"/>
      <point x="254" y="470"/>
      <point x="209" y="417" type="curve"/>
      <point x="224" y="488" type="line"/>
      <point x="151" y="488" type="line"/>
      <point x="47" y="0" type="line"/>
      <point x="120" y="0" type="line"/>
      <point x="198" y="367" type="line"/>
      <point x="236" y="413"/>
      <point x="286" y="436"/>
      <point x="339" y="436" type="curve" smooth="yes"/>
      <point x="419" y="436"/>
      <point x="459" y="377"/>
      <point x="440" y="287" type="curve" smooth="yes"/>
      <point x="362" y="-89" type="line" smooth="yes"/>
      <point x="352" y="-135"/>
      <point x="330" y="-153"/>
      <point x="282" y="-153" type="curve" smooth="yes"/>
      <point x="263" y="-153"/>
      <point x="243" y="-149"/>
      <point x="224" y="-143" type="curve"/>
      <point x="211" y="-207" type="line"/>
      <point x="233" y="-214"/>
      <point x="260" y="-219"/>
    </contour>
  </outline>
</glyph>
<glyph name="oe" format="2">
  <advance width="600"/>
  <unicode hex="0153"/>
  <outline>
    <contour>
      <point x="464" y="435" type="curve" smooth="yes"/>
      <point x="520" y="435"/>
      <point x="542" y="377"/>
      <point x="522" y="280" type="curve"/>
      <point x="344" y="280" type="line"/>
      <point x="368" y="370"/>
      <point x="418" y="435"/>
    </contour>
    <contour>
      <point x="147" y="54" type="curve" smooth="yes"/>
      <point x="107" y="54"/>
      <point x="82" y="99"/>
      <point x="82" y="172" type="curve" smooth="yes"/>
      <point x="82" y="304"/>
      <point x="148" y="434"/>
      <point x="214" y="434" type="curve" smooth="yes"/>
      <point x="254" y="434"/>
      <point x="279" y="389"/>
      <point x="279" y="315" type="curve" smooth="yes"/>
      <point x="279" y="184"/>
      <point x="213" y="54"/>
    </contour>
    <contour>
      <point x="136" y="-10" type="curve" smooth="yes"/>
      <point x="192" y="-10"/>
      <point x="243" y="27"/>
      <point x="280" y="87" type="curve"/>
      <point x="300" y="24"/>
      <point x="347" y="-10"/>
      <point x="416" y="-10" type="curve" smooth="yes"/>
      <point x="459" y="-10"/>
      <point x="499" y="2"/>
      <point x="540" y="26" type="curve"/>
      <point x="512" y="84" type="line"/>
      <point x="484" y="65"/>
      <point x="449" y="54"/>
      <point x="417" y="54" type="curve" smooth="yes"/>
      <point x="362" y="54"/>
      <point x="330" y="99"/>
      <point x="330" y="177" type="curve" smooth="yes"/>
      <point x="330" y="194"/>
      <point x="331" y="211"/>
      <point x="334" y="228" type="curve"/>
      <point x="577" y="228" type="line"/>
      <point x="589" y="279"/>
      <point x="593" y="309"/>
      <point x="593" y="337" type="curve" smooth="yes"/>
      <point x="593" y="436"/>
      <point x="547" y="496"/>
      <point x="471" y="496" type="curve" smooth="yes"/>
      <point x="416" y="496"/>
      <point x="366" y="459"/>
      <point x="329" y="401" type="curve"/>
      <point x="311" y="462"/>
      <point x="273" y="496"/>
      <point x="220" y="496" type="curve" smooth="yes"/>
      <point x="110" y="496"/>
      <point x="15" y="347"/>
      <point x="15" y="173" type="curve" smooth="yes"/>
      <point x="15" y="60"/>
      <point x="62" y="-10"/>
    </contour>
  </outline>
</glyph>
<glyph name="Scedilla" format="2">
  <advance width="600"/>
  <unicode hex="015E"/>
  <outline>
    <contour>
      <point x="241" y="-239" type="curve"/>
      <point x="307" y="-239"/>
      <point x="357" y="-195"/>
      <point x="357" y="-138" type="curve"/>
      <point x="357" y="-99"/>
      <point x="327" y="-70"/>
      <point x="276" y="-66" type="curve"/>
      <point x="300" y="-11" type="line"/>
      <point x="426" y="-11"/>
      <point x="531" y="70"/>
      <point x="531" y="198" type="curve" smooth="yes"/>
      <point x="531" y="428"/>
      <point x="203" y="353"/>
      <point x="203" y="527" type="curve" smooth="yes"/>
      <point x="203" y="593"/>
      <point x="257" y="646"/>
      <point x="352" y="646" type="curve" smooth="yes"/>
      <point x="421" y="646"/>
      <point x="495" y="614"/>
      <point x="561" y="551" type="curve"/>
      <point x="607" y="607" type="line"/>
      <point x="531" y="680"/>
      <point x="441" y="711"/>
      <point x="350" y="711" type="curve" smooth="yes"/>
      <point x="213" y="711"/>
      <point x="129" y="629"/>
      <point x="129" y="521" type="curve" smooth="yes"/>
      <point x="129" y="292"/>
      <point x="454" y="368"/>
      <point x="454" y="192" type="curve" smooth="yes"/>
      <point x="454" y="110"/>
      <point x="385" y="55"/>
      <point x="297" y="55" type="curve" smooth="yes"/>
      <point x="220" y="55"/>
      <point x="135" y="96"/>
      <point x="79" y="170" type="curve"/>
      <point x="27" y="121" type="line"/>
      <point x="81" y="47"/>
      <point x="168" y="1"/>
      <point x="259" y="-9" type="curve"/>
      <point x="219" y="-99" type="line"/>
      <point x="247" y="-99" type="line" smooth="yes"/>
      <point x="287" y="-99"/>
      <point x="311" y="-116"/>
      <point x="311" y="-144" type="curve"/>
      <point x="311" y="-177"/>
      <point x="283" y="-199"/>
      <point x="239" y="-199" type="curve"/>
      <point x="210" y="-199"/>
      <point x="186" y="-189"/>
      <point x="166" y="-167" type="curve"/>
      <point x="135" y="-197" type="line"/>
      <point x="157" y="-224"/>
      <point x="196" y="-239"/>
    </contour>
  </outline>
</glyph>
<glyph name="Tcedilla" format="2">
  <advance width="600"/>
  <unicode hex="0162"/>
  <outline>
    <contour>
      <point x="210" y="0" type="line"/>
      <point x="227" y="0" type="line"/>
      <point x="183" y="-99" type="line"/>
      <point x="211" y="-99" type="line" smooth="yes"/>
      <point x="251" y="-99"/>
      <point x="275" y="-116"/>
      <point x="275" y="-144" type="curve"/>
      <point x="275" y="-177"/>
      <point x="247" y="-199"/>
      <point x="203" y="-199" type="curve"/>
      <point x="174" y="-199"/>
      <point x="150" y="-189"/>
      <point x="130" y="-167" type="curve"/>
      <point x="99" y="-197" type="line"/>
      <point x="121" y="-224"/>
      <point x="160" y="-239"/>
      <point x="205" y="-239" type="curve"/>
      <point x="271" y="-239"/>
      <point x="321" y="-195"/>
      <point x="321" y="-138" type="curve"/>
      <point x="321" y="-99"/>
      <point x="291" y="-70"/>
      <point x="240" y="-66" type="curve"/>
      <point x="269" y="0" type="line"/>
      <point x="287" y="0" type="line"/>
      <point x="422" y="632" type="line"/>
      <point x="652" y="632" type="line"/>
      <point x="667" y="700" type="line"/>
      <point x="127" y="700" type="line"/>
      <point x="112" y="632" type="line"/>
      <point x="345" y="632" type="line"/>
    </contour>
  </outline>
</glyph>
<glyph name="tcaron" format="2">
  <advance width="600"/>
  <unicode hex="0165"/>
  <outline>
    <contour>
      <point x="445" y="577" type="line"/>
      <point x="503" y="577" type="line"/>
      <point x="573" y="787" type="line"/>
      <point x="494" y="773" type="line"/>
    </contour>
    <component base="t"/>
  </outline>
</glyph>
<glyph name="Tbar" format="2">
  <advance width="600"/>
  <unicode hex="0166"/>
  <outline>
    <contour>
      <point x="210" y="0" type="line"/>
      <point x="287" y="0" type="line"/>
      <point x="354" y="312" type="line"/>
      <point x="507" y="312" type="line"/>
      <point x="520" y="373" type="line"/>
      <point x="367" y="373" type="line"/>
      <point x="422" y="632" type="line"/>
      <point x="652" y="632" type="line"/>
      <point x="667" y="700" type="line"/>
      <point x="127" y="700" type="line"/>
      <point x="112" y="632" type="line"/>
      <point x="345" y="632" type="line"/>
      <point x="290" y="373" type="line"/>
      <point x="136" y="373" type="line"/>
      <point x="123" y="312" type="line"/>
      <point x="277" y="312" type="line"/>
    </contour>
  </outline>
</glyph>
<glyph name="Uogonek" format="2">
  <advance width="600"/>
  <unicode hex="0172"/>
  <outline>
    <contour>
      <point x="265" y="-232" type="curve" smooth="yes"/>
      <point x="289" y="-232"/>
      <point x="313" y="-227"/>
      <point x="331" y="-218" type="curve"/>
      <point x="327" y="-178" type="line"/>
      <point x="314" y="-183"/>
      <point x="295" y="-187"/>
      <point x="281" y="-187" type="curve" smooth="yes"/>
      <point x="246" y="-187"/>
      <point x="221" y="-168"/>
      <point x="221" y="-139" type="curve" smooth="yes"/>
      <point x="221" y="-93"/>
      <point x="262" y="-49"/>
      <point x="349" y="-2" type="curve"/>
      <point x="452" y="25"/>
      <point x="512" y="111"/>
      <point x="539" y="236" type="curve" smooth="yes"/>
      <point x="638" y="700" type="line"/>
      <point x="561" y="700" type="line"/>
      <point x="464" y="246" type="line" smooth="yes"/>
      <point x="438" y="126"/>
      <point x="380" y="59"/>
      <point x="273" y="59" type="curve" smooth="yes"/>
      <point x="165" y="59"/>
      <point x="113" y="138"/>
      <point x="139" y="259" type="curve" smooth="yes"/>
      <point x="233" y="700" type="line"/>
      <point x="156" y="700" type="line"/>
      <point x="64" y="270" type="line" smooth="yes"/>
      <point x="26" y="90"/>
      <point x="117" y="-11"/>
      <point x="274" y="-11" type="curve"/>
      <point x="204" y="-56"/>
      <point x="170" y="-103"/>
      <point x="170" y="-154" type="curve" smooth="yes"/>
      <point x="170" y="-201"/>
      <point x="208" y="-232"/>
    </contour>
  </outline>
</glyph>
<glyph name="uogonek" format="2">
  <advance width="600"/>
  <unicode hex="0173"/>
  <outline>
    <contour>
      <point x="362" y="-232" type="curve" smooth="yes"/>
      <point x="386" y="-232"/>
      <point x="410" y="-227"/>
      <point x="428" y="-218" type="curve"/>
      <point x="424" y="-178" type="line"/>
      <point x="411" y="-183"/>
      <point x="392" y="-187"/>
      <point x="378" y="-187" type="curve" smooth="yes"/>
      <point x="343" y="-187"/>
      <point x="318" y="-168"/>
      <point x="318" y="-139" type="curve" smooth="yes"/>
      <point x="318" y="-92"/>
      <point x="360" y="-48"/>
      <point x="449" y="0" type="curve"/>
      <point x="553" y="488" type="line"/>
      <point x="480" y="488" type="line"/>
      <point x="403" y="127" type="line"/>
      <point x="364" y="78"/>
      <point x="314" y="52"/>
      <point x="260" y="52" type="curve" smooth="yes"/>
      <point x="182" y="52"/>
      <point x="142" y="111"/>
      <point x="161" y="201" type="curve" smooth="yes"/>
      <point x="222" y="488" type="line"/>
      <point x="149" y="488" type="line"/>
      <point x="86" y="190" type="line" smooth="yes"/>
      <point x="61" y="73"/>
      <point x="121" y="-8"/>
      <point x="230" y="-8" type="curve" smooth="yes"/>
      <point x="291" y="-8"/>
      <point x="346" y="20"/>
      <point x="392" y="75" type="curve"/>
      <point x="376" y="0" type="line"/>
      <point x="389" y="0" type="line"/>
      <point x="307" y="-48"/>
      <point x="267" y="-99"/>
      <point x="267" y="-154" type="curve" smooth="yes"/>
      <point x="267" y="-201"/>
      <point x="305" y="-232"/>
    </contour>
  </outline>
</glyph>
<glyph name="dotaccent" format="2">
  <advance width="600"/>
  <unicode hex="02D9"/>
  <outline>
    <contour>
      <point x="384" y="604" type="curve" smooth="yes"/>
      <point x="422" y="604"/>
      <point x="453" y="635"/>
      <point x="453" y="670" type="curve" smooth="yes"/>
      <point x="453" y="702"/>
      <point x="427" y="728"/>
      <point x="395" y="728" type="curve" smooth="yes"/>
      <point x="358" y="728"/>
      <point x="326" y="696"/>
      <point x="326" y="661" type="curve" smooth="yes"/>
      <point x="326" y="629"/>
      <point x="351" y="604"/>
    </contour>
  </outline>
</glyph>
<glyph name="ring" format="2">
  <advance width="600"/>
  <unicode hex="02DA"/>
  <outline>
    <contour>
      <point x="384" y="572" type="curve" smooth="yes"/>
      <point x="448" y="572"/>
      <point x="503" y="630"/>
      <point x="503" y="696" type="curve" smooth="yes"/>
      <point x="503" y="753"/>
      <point x="461" y="794"/>
      <point x="401" y="794" type="curve" smooth="yes"/>
      <point x="338" y="794"/>
      <point x="283" y="736"/>
      <point x="283" y="670" type="curve" smooth="yes"/>
      <point x="283" y="613"/>
      <point x="325" y="572"/>
    </contour>
    <contour>
      <point x="384" y="612" type="curve" smooth="yes"/>
      <point x="351" y="612"/>
      <point x="325" y="638"/>
      <point x="325" y="673" type="curve" smooth="yes"/>
      <point x="325" y="717"/>
      <point x="361" y="753"/>
      <point x="401" y="753" type="curve" smooth="yes"/>
      <point x="435" y="753"/>
      <point x="460" y="727"/>
      <point x="460" y="692" type="curve" smooth="yes"/>
      <point x="460" y="649"/>
      <point x="425" y="612"/>
    </contour>
  </outline>
</glyph>
<glyph name="uni0327" format="2">
  <unicode hex="0327"/>
  <guideline x="248" y="0" angle="0.0" color="0.999,0.001,0.001,0.999" identifier="eAwEMm5V8S"/>
  <anchor x="248" y="0" name="_bottom"/>
  <outline>
    <contour>
      <point x="205" y="-239" type="curve"/>
      <point x="271" y="-239"/>
      <point x="321" y="-195"/>
      <point x="321" y="-138" type="curve"/>
      <point x="321" y="-99"/>
      <point x="291" y="-70"/>
      <point x="240" y="-66" type="curve"/>
      <point x="269" y="0" type="line"/>
      <point x="227" y="0" type="line"/>
      <point x="183" y="-99" type="line"/>
      <point x="211" y="-99" type="line" smooth="yes"/>
      <point x="251" y="-99"/>
      <point x="275" y="-116"/>
      <point x="275" y="-144" type="curve"/>
      <point x="275" y="-177"/>
      <point x="247" y="-199"/>
      <point x="203" y="-199" type="curve"/>
      <point x="174" y="-199"/>
      <point x="150" y="-189"/>
      <point x="130" y="-167" type="curve"/>
      <point x="99" y="-197" type="line"/>
      <point x="121" y="-224"/>
      <point x="160" y="-239"/>
    </contour>
  </outline>
</glyph>
<glyph name="quoteleft" format="2">
  <advance width="600"/>
  <unicode hex="2018"/>
  <outline>
    <contour>
      <point x="480" y="750" type="line"/>
      <point x="423" y="750" type="line"/>
      <point x="283" y="519" type="line"/>
      <point x="381" y="519" type="line"/>
    </contour>
  </outline>
</glyph>
<glyph name="dagger" format="2">
  <advance width="600"/>
  <unicode hex="2020"/>
  <outline>
    <contour>
      <point x="216" y="0" type="line"/>
      <point x="280" y="0" type="line"/>
      <point x="374" y="443" type="line"/>
      <point x="509" y="443" type="line"/>
      <point x="521" y="500" type="line"/>
      <point x="386" y="500" type="line"/>
      <point x="429" y="700" type="line"/>
      <point x="365" y="700" type="line"/>
      <point x="322" y="500" type="line"/>
      <point x="187" y="500" type="line"/>
      <point x="175" y="443" type="line"/>
      <point x="310" y="443" type="line"/>
    </contour>
  </outline>
</glyph>
<glyph name="daggerdbl" format="2">
  <advance width="600"/>
  <unicode hex="2021"/>
  <outline>
    <contour>
      <point x="216" y="0" type="line"/>
      <point x="280" y="0" type="line"/>
      <point x="323" y="200" type="line"/>
      <point x="458" y="200" type="line"/>
      <point x="470" y="257" type="line"/>
      <point x="335" y="257" type="line"/>
      <point x="374" y="443" type="line"/>
      <point x="509" y="443" type="line"/>
      <point x="521" y="500" type="line"/>
      <point x="386" y="500" type="line"/>
      <point x="429" y="700" type="line"/>
      <point x="365" y="700" type="line"/>
      <point x="322" y="500" type="line"/>
      <point x="187" y="500" type="line"/>
      <point x="175" y="443" type="line"/>
      <point x="310" y="443" type="line"/>
      <point x="271" y="257" type="line"/>
      <point x="136" y="257" type="line"/>
      <point x="124" y="200" type="line"/>
      <point x="259" y="200" type="line"/>
    </contour>
  </outline>
</glyph>
<glyph name="bullet" format="2">
  <advance width="600"/>
  <unicode hex="2022"/>
  <outline>
    <contour>
      <point x="314" y="253" type="curve" smooth="yes"/>
      <point x="370" y="253"/>
      <point x="421" y="307"/>
      <point x="421" y="364" type="curve" smooth="yes"/>
      <point x="421" y="415"/>
      <point x="382" y="454"/>
      <point x="334" y="454" type="curve" smooth="yes"/>
      <point x="276" y="454"/>
      <point x="225" y="401"/>
      <point x="225" y="343" type="curve" smooth="yes"/>
      <point x="225" y="292"/>
      <point x="264" y="253"/>
    </contour>
  </outline>
</glyph>
<glyph name="perthousand" format="2">
  <advance width="600"/>
  <unicode hex="2030"/>
  <outline>
    <contour>
      <point x="254" y="36" type="curve" smooth="yes"/>
      <point x="233" y="36"/>
      <point x="221" y="55"/>
      <point x="221" y="88" type="curve" smooth="yes"/>
      <point x="221" y="150"/>
      <point x="250" y="210"/>
      <point x="280" y="210" type="curve" smooth="yes"/>
      <point x="301" y="210"/>
      <point x="313" y="191"/>
      <point x="313" y="158" type="curve" smooth="yes"/>
      <point x="313" y="96"/>
      <point x="284" y="36"/>
    </contour>
    <contour>
      <point x="252" y="-5" type="curve" smooth="yes"/>
      <point x="308" y="-5"/>
      <point x="358" y="70"/>
      <point x="358" y="154" type="curve" smooth="yes"/>
      <point x="358" y="213"/>
      <point x="328" y="251"/>
      <point x="282" y="251" type="curve" smooth="yes"/>
      <point x="225" y="251"/>
      <point x="176" y="176"/>
      <point x="176" y="90" type="curve" smooth="yes"/>
      <point x="176" y="32"/>
      <point x="206" y="-5"/>
    </contour>
    <contour>
      <point x="-6" y="0" type="line"/>
      <point x="42" y="0" type="line"/>
      <point x="448" y="700" type="line"/>
      <point x="400" y="700" type="line"/>
    </contour>
    <contour>
      <point x="160" y="449" type="curve" smooth="yes"/>
      <point x="217" y="449"/>
      <point x="266" y="524"/>
      <point x="266" y="610" type="curve" smooth="yes"/>
      <point x="266" y="668"/>
      <point x="236" y="705"/>
      <point x="190" y="705" type="curve" smooth="yes"/>
      <point x="134" y="705"/>
      <point x="84" y="630"/>
      <point x="84" y="546" type="curve" smooth="yes"/>
      <point x="84" y="487"/>
      <point x="114" y="449"/>
    </contour>
    <contour>
      <point x="455" y="-5" type="curve" smooth="yes"/>
      <point x="511" y="-5"/>
      <point x="561" y="70"/>
      <point x="561" y="154" type="curve" smooth="yes"/>
      <point x="561" y="213"/>
      <point x="531" y="251"/>
      <point x="485" y="251" type="curve" smooth="yes"/>
      <point x="428" y="251"/>
      <point x="379" y="176"/>
      <point x="379" y="90" type="curve" smooth="yes"/>
      <point x="379" y="32"/>
      <point x="409" y="-5"/>
    </contour>
    <contour>
      <point x="129" y="542" type="curve" smooth="yes"/>
      <point x="129" y="604"/>
      <point x="158" y="664"/>
      <point x="188" y="664" type="curve" smooth="yes"/>
      <point x="209" y="664"/>
      <point x="221" y="645"/>
      <point x="221" y="612" type="curve" smooth="yes"/>
      <point x="221" y="550"/>
      <point x="192" y="490"/>
      <point x="162" y="490" type="curve" smooth="yes"/>
      <point x="141" y="490"/>
      <point x="129" y="509"/>
    </contour>
    <contour>
      <point x="457" y="36" type="curve" smooth="yes"/>
      <point x="436" y="36"/>
      <point x="424" y="55"/>
      <point x="424" y="88" type="curve" smooth="yes"/>
      <point x="424" y="150"/>
      <point x="453" y="210"/>
      <point x="483" y="210" type="curve" smooth="yes"/>
      <point x="504" y="210"/>
      <point x="516" y="191"/>
      <point x="516" y="158" type="curve" smooth="yes"/>
      <point x="516" y="96"/>
      <point x="487" y="36"/>
    </contour>
  </outline>
</glyph>
<glyph name="guilsinglleft" format="2">
  <advance width="600"/>
  <unicode hex="2039"/>
  <outline>
    <contour>
      <point x="307" y="0" type="line"/>
      <point x="384" y="0" type="line"/>
      <point x="217" y="241" type="line"/>
      <point x="491" y="488" type="line"/>
      <point x="408" y="488" type="line"/>
      <point x="133" y="245" type="line"/>
    </contour>
  </outline>
</glyph>
<glyph name="uni2080" format="2">
  <advance width="600"/>
  <unicode hex="2080"/>
  <outline>
    <contour>
      <point x="261" y="-5" type="curve" smooth="yes"/>
      <point x="355" y="-5"/>
      <point x="433" y="96"/>
      <point x="433" y="217" type="curve" smooth="yes"/>
      <point x="433" y="301"/>
      <point x="384" y="355"/>
      <point x="308" y="355" type="curve" smooth="yes"/>
      <point x="214" y="355"/>
      <point x="136" y="254"/>
      <point x="136" y="133" type="curve" smooth="yes"/>
      <point x="136" y="49"/>
      <point x="185" y="-5"/>
    </contour>
    <contour>
      <point x="266" y="41" type="curve" smooth="yes"/>
      <point x="216" y="41"/>
      <point x="185" y="76"/>
      <point x="185" y="135" type="curve" smooth="yes"/>
      <point x="185" y="229"/>
      <point x="239" y="310"/>
      <point x="302" y="310" type="curve" smooth="yes"/>
      <point x="353" y="310"/>
      <point x="384" y="274"/>
      <point x="384" y="216" type="curve" smooth="yes"/>
      <point x="384" y="121"/>
      <point x="330" y="41"/>
    </contour>
  </outline>
</glyph>
<glyph name="uni2083" format="2">
  <advance width="600"/>
  <unicode hex="2083"/>
  <outline>
    <contour>
      <point x="257" y="-5" type="curve" smooth="yes"/>
      <point x="333" y="-5"/>
      <point x="392" y="43"/>
      <point x="392" y="103" type="curve" smooth="yes"/>
      <point x="392" y="139"/>
      <point x="367" y="165"/>
      <point x="326" y="176" type="curve"/>
      <point x="378" y="187"/>
      <point x="416" y="222"/>
      <point x="416" y="264" type="curve" smooth="yes"/>
      <point x="416" y="317"/>
      <point x="369" y="355"/>
      <point x="306" y="355" type="curve" smooth="yes"/>
      <point x="266" y="355"/>
      <point x="224" y="342"/>
      <point x="183" y="316" type="curve"/>
      <point x="205" y="277" type="line"/>
      <point x="243" y="299"/>
      <point x="271" y="309"/>
      <point x="299" y="309" type="curve" smooth="yes"/>
      <point x="337" y="309"/>
      <point x="364" y="287"/>
      <point x="364" y="256" type="curve" smooth="yes"/>
      <point x="364" y="222"/>
      <point x="328" y="196"/>
      <point x="279" y="196" type="curve" smooth="yes"/>
      <point x="251" y="196" type="line"/>
      <point x="243" y="155" type="line"/>
      <point x="274" y="155" type="line" smooth="yes"/>
      <point x="316" y="155"/>
      <point x="343" y="134"/>
      <point x="343" y="100" type="curve" smooth="yes"/>
      <point x="343" y="66"/>
      <point x="306" y="40"/>
      <point x="260" y="40" type="curve" smooth="yes"/>
      <point x="223" y="40"/>
      <point x="188" y="56"/>
      <point x="161" y="84" type="curve"/>
      <point x="127" y="49" type="line"/>
      <point x="159" y="12"/>
      <point x="201" y="-5"/>
    </contour>
  </outline>
</glyph>
<glyph name="uni2084" format="2">
  <advance width="600"/>
  <unicode hex="2084"/>
  <outline>
    <contour>
      <point x="300" y="0" type="line"/>
      <point x="350" y="0" type="line"/>
      <point x="369" y="88" type="line"/>
      <point x="410" y="88" type="line"/>
      <point x="420" y="130" type="line"/>
      <point x="378" y="130" type="line"/>
      <point x="425" y="350" type="line"/>
      <point x="368" y="350" type="line"/>
      <point x="135" y="129" type="line"/>
      <point x="127" y="88" type="line"/>
      <point x="319" y="88" type="line"/>
    </contour>
    <contour>
      <point x="192" y="130" type="line"/>
      <point x="362" y="292" type="line"/>
      <point x="328" y="130" type="line"/>
    </contour>
  </outline>
</glyph>
<glyph name="uni2088" format="2">
  <advance width="600"/>
  <unicode hex="2088"/>
  <outline>
    <contour>
      <point x="260" y="-5" type="curve" smooth="yes"/>
      <point x="338" y="-5"/>
      <point x="400" y="43"/>
      <point x="400" y="103" type="curve" smooth="yes"/>
      <point x="400" y="138"/>
      <point x="377" y="166"/>
      <point x="341" y="179" type="curve"/>
      <point x="388" y="191"/>
      <point x="421" y="227"/>
      <point x="421" y="269" type="curve" smooth="yes"/>
      <point x="421" y="318"/>
      <point x="374" y="355"/>
      <point x="311" y="355" type="curve" smooth="yes"/>
      <point x="241" y="355"/>
      <point x="183" y="309"/>
      <point x="183" y="254" type="curve" smooth="yes"/>
      <point x="183" y="223"/>
      <point x="200" y="199"/>
      <point x="229" y="186" type="curve"/>
      <point x="175" y="175"/>
      <point x="136" y="133"/>
      <point x="136" y="86" type="curve" smooth="yes"/>
      <point x="136" y="33"/>
      <point x="187" y="-5"/>
    </contour>
    <contour>
      <point x="297" y="202" type="curve" smooth="yes"/>
      <point x="260" y="202"/>
      <point x="232" y="224"/>
      <point x="232" y="253" type="curve" smooth="yes"/>
      <point x="232" y="287"/>
      <point x="265" y="314"/>
      <point x="307" y="314" type="curve" smooth="yes"/>
      <point x="343" y="314"/>
      <point x="371" y="292"/>
      <point x="371" y="263" type="curve" smooth="yes"/>
      <point x="371" y="230"/>
      <point x="337" y="202"/>
    </contour>
    <contour>
      <point x="264" y="36" type="curve" smooth="yes"/>
      <point x="219" y="36"/>
      <point x="187" y="60"/>
      <point x="187" y="95" type="curve" smooth="yes"/>
      <point x="187" y="132"/>
      <point x="225" y="162"/>
      <point x="273" y="162" type="curve" smooth="yes"/>
      <point x="318" y="162"/>
      <point x="350" y="138"/>
      <point x="350" y="104" type="curve" smooth="yes"/>
      <point x="350" y="66"/>
      <point x="311" y="36"/>
    </contour>
  </outline>
</glyph>
<glyph name="trademark" format="2">
  <advance width="600"/>
  <unicode hex="2122"/>
  <outline>
    <contour>
      <point x="323" y="421" type="line"/>
      <point x="363" y="421" type="line"/>
      <point x="410" y="643" type="line"/>
      <point x="463" y="440" type="line"/>
      <point x="604" y="645" type="line"/>
      <point x="554" y="421" type="line"/>
      <point x="595" y="421" type="line"/>
      <point x="655" y="700" type="line"/>
      <point x="599" y="700" type="line"/>
      <point x="478" y="519" type="line"/>
      <point x="433" y="700" type="line"/>
      <point x="383" y="700" type="line"/>
    </contour>
    <contour>
      <point x="160" y="421" type="line"/>
      <point x="202" y="421" type="line"/>
      <point x="254" y="662" type="line"/>
      <point x="338" y="662" type="line"/>
      <point x="346" y="700" type="line"/>
      <point x="137" y="700" type="line"/>
      <point x="129" y="662" type="line"/>
      <point x="212" y="662" type="line"/>
    </contour>
  </outline>
</glyph>
<glyph name="uni2191" format="2">
  <advance width="600"/>
  <unicode hex="2191"/>
  <outline>
    <contour>
      <point x="288" y="0" type="line"/>
      <point x="356" y="0" type="line"/>
      <point x="356" y="614" type="line"/>
      <point x="521" y="395" type="line"/>
      <point x="568" y="432" type="line"/>
      <point x="323" y="750" type="line"/>
      <point x="77" y="432" type="line"/>
      <point x="125" y="394" type="line"/>
      <point x="288" y="609" type="line"/>
    </contour>
  </outline>
</glyph>
<glyph name="uni2193" format="2">
  <advance width="600"/>
  <unicode hex="2193"/>
  <outline>
    <contour>
      <point x="338" y="700" type="line"/>
      <point x="270" y="700" type="line"/>
      <point x="270" y="86" type="line"/>
      <point x="105" y="305" type="line"/>
      <point x="58" y="268" type="line"/>
      <point x="303" y="-50" type="line"/>
      <point x="549" y="268" type="line"/>
      <point x="501" y="306" type="line"/>
      <point x="338" y="91" type="line"/>
    </contour>
  </outline>
</glyph>
<glyph name="notequal" format="2">
  <advance width="600"/>
  <unicode hex="2260"/>
  <outline>
    <contour>
      <point x="85" y="123" type="line"/>
      <point x="143" y="123" type="line"/>
      <point x="252" y="245" type="line"/>
      <point x="496" y="245" type="line"/>
      <point x="509" y="305" type="line"/>
      <point x="306" y="305" type="line"/>
      <point x="399" y="408" type="line"/>
      <point x="531" y="408" type="line"/>
      <point x="544" y="468" type="line"/>
      <point x="452" y="468" type="line"/>
      <point x="561" y="589" type="line"/>
      <point x="503" y="589" type="line"/>
      <point x="394" y="468" type="line"/>
      <point x="150" y="468" type="line"/>
      <point x="137" y="408" type="line"/>
      <point x="341" y="408" type="line"/>
      <point x="248" y="305" type="line"/>
      <point x="115" y="305" type="line"/>
      <point x="102" y="245" type="line"/>
      <point x="194" y="245" type="line"/>
    </contour>
  </outline>
</glyph>
<glyph name="fi" format="2">
  <advance width="600"/>
  <unicode hex="FB01"/>
  <outline>
    <contour>
      <point x="80" y="0" type="line"/>
      <point x="153" y="0" type="line"/>
      <point x="244" y="428" type="line"/>
      <point x="383" y="428" type="line"/>
      <point x="396" y="488" type="line"/>
      <point x="257" y="488" type="line"/>
      <point x="278" y="586" type="line" smooth="yes"/>
      <point x="290" y="644"/>
      <point x="320" y="671"/>
      <point x="376" y="671" type="curve" smooth="yes"/>
      <point x="398" y="671"/>
      <point x="413" y="668"/>
      <point x="433" y="662" type="curve"/>
      <point x="447" y="728" type="line"/>
      <point x="431" y="734"/>
      <point x="410" y="737"/>
      <point x="383" y="737" type="curve" smooth="yes"/>
      <point x="289" y="737"/>
      <point x="225" y="683"/>
      <point x="205" y="587" type="curve" smooth="yes"/>
      <point x="184" y="488" type="line"/>
      <point x="75" y="488" type="line"/>
      <point x="62" y="428" type="line"/>
      <point x="171" y="428" type="line"/>
    </contour>
    <contour>
      <point x="556" y="604" type="curve" smooth="yes"/>
      <point x="594" y="604"/>
      <point x="625" y="635"/>
      <point x="625" y="670" type="curve" smooth="yes"/>
      <point x="625" y="702"/>
      <point x="599" y="728"/>
      <point x="567" y="728" type="curve" smooth="yes"/>
      <point x="530" y="728"/>
      <point x="498" y="696"/>
      <point x="498" y="661" type="curve" smooth="yes"/>
      <point x="498" y="629"/>
      <point x="523" y="604"/>
    </contour>
    <contour>
      <point x="385" y="0" type="line"/>
      <point x="458" y="0" type="line"/>
      <point x="562" y="488" type="line"/>
      <point x="489" y="488" type="line"/>
    </contour>
  </outline>
</glyph>
<glyph name="fl" format="2">
  <advance width="600"/>
  <unicode hex="FB02"/>
  <outline>
    <contour>
      <point x="80" y="0" type="line"/>
      <point x="153" y="0" type="line"/>
      <point x="244" y="428" type="line"/>
      <point x="383" y="428" type="line"/>
      <point x="396" y="488" type="line"/>
      <point x="257" y="488" type="line"/>
      <point x="278" y="586" type="line" smooth="yes"/>
      <point x="290" y="644"/>
      <point x="320" y="671"/>
      <point x="376" y="671" type="curve" smooth="yes"/>
      <point x="398" y="671"/>
      <point x="413" y="668"/>
      <point x="433" y="662" type="curve"/>
      <point x="447" y="728" type="line"/>
      <point x="431" y="734"/>
      <point x="410" y="737"/>
      <point x="383" y="737" type="curve" smooth="yes"/>
      <point x="289" y="737"/>
      <point x="225" y="683"/>
      <point x="205" y="587" type="curve" smooth="yes"/>
      <point x="184" y="488" type="line"/>
      <point x="75" y="488" type="line"/>
      <point x="62" y="428" type="line"/>
      <point x="171" y="428" type="line"/>
    </contour>
    <contour>
      <point x="386" y="0" type="line"/>
      <point x="459" y="0" type="line"/>
      <point x="615" y="737" type="line"/>
      <point x="539" y="722" type="line"/>
    </contour>
  </outline>
</glyph>
<glyph name="aogonek.school" format="2">
  <advance width="600"/>
  <outline>
    <contour>
      <point x="370" y="-232" type="curve" smooth="yes"/>
      <point x="394" y="-232"/>
      <point x="418" y="-227"/>
      <point x="436" y="-218" type="curve"/>
      <point x="432" y="-178" type="line"/>
      <point x="419" y="-183"/>
      <point x="400" y="-187"/>
      <point x="386" y="-187" type="curve" smooth="yes"/>
      <point x="351" y="-187"/>
      <point x="326" y="-168"/>
      <point x="326" y="-139" type="curve" smooth="yes"/>
      <point x="326" y="-92"/>
      <point x="368" y="-48"/>
      <point x="457" y="0" type="curve"/>
      <point x="561" y="488" type="line"/>
      <point x="490" y="488" type="line"/>
      <point x="473" y="407" type="line"/>
      <point x="439" y="463"/>
      <point x="383" y="494"/>
      <point x="314" y="494" type="curve" smooth="yes"/>
      <point x="175" y="494"/>
      <point x="61" y="368"/>
      <point x="61" y="215" type="curve" smooth="yes"/>
      <point x="61" y="87"/>
      <point x="144" y="-7"/>
      <point x="256" y="-7" type="curve"/>
      <point x="311" y="-7"/>
      <point x="358" y="13"/>
      <point x="397" y="51" type="curve"/>
      <point x="386" y="0" type="line"/>
      <point x="397" y="0" type="line"/>
      <point x="315" y="-48"/>
      <point x="275" y="-99"/>
      <point x="275" y="-154" type="curve" smooth="yes"/>
      <point x="275" y="-201"/>
      <point x="313" y="-232"/>
    </contour>
    <contour>
      <point x="282" y="55" type="curve"/>
      <point x="193" y="55"/>
      <point x="132" y="122"/>
      <point x="132" y="221" type="curve" smooth="yes"/>
      <point x="132" y="338"/>
      <point x="216" y="430"/>
      <point x="323" y="430" type="curve" smooth="yes"/>
      <point x="382" y="430"/>
      <point x="436" y="397"/>
      <point x="460" y="349" type="curve"/>
      <point x="409" y="109" type="line"/>
      <point x="373" y="74"/>
      <point x="329" y="55"/>
    </contour>
  </outline>
</glyph>
<glyph name="gravecomb" format="2">
  <anchor x="352" y="488" name="_top"/>
  <outline>
    <contour>
      <point x="379" y="604" type="line"/>
      <point x="446" y="604" type="line"/>
      <point x="337" y="726" type="line"/>
      <point x="237" y="726" type="line"/>
    </contour>
  </outline>
</glyph>
<glyph name="tildecomb" format="2">
  <anchor x="352" y="488" name="_top"/>
  <outline>
    <contour>
      <point x="262" y="605" type="line"/>
      <point x="281" y="648"/>
      <point x="296" y="664"/>
      <point x="319" y="664" type="curve" smooth="yes"/>
      <point x="360" y="664"/>
      <point x="399" y="602"/>
      <point x="459" y="602" type="curve" smooth="yes"/>
      <point x="498" y="602"/>
      <point x="534" y="635"/>
      <point x="563" y="698" type="curve"/>
      <point x="514" y="713" type="line"/>
      <point x="492" y="666"/>
      <point x="481" y="653"/>
      <point x="461" y="653" type="curve" smooth="yes"/>
      <point x="421" y="653"/>
      <point x="380" y="716"/>
      <point x="320" y="716" type="curve" smooth="yes"/>
      <point x="281" y="716"/>
      <point x="244" y="683"/>
      <point x="213" y="620" type="curve"/>
    </contour>
  </outline>
</glyph>
<glyph name="uni0302" format="2">
  <anchor x="352" y="488" name="_top"/>
  <outline>
    <contour>
      <point x="224" y="599" type="line"/>
      <point x="285" y="599" type="line"/>
      <point x="396" y="683" type="line"/>
      <point x="469" y="599" type="line"/>
      <point x="525" y="599" type="line"/>
      <point x="438" y="726" type="line"/>
      <point x="361" y="726" type="line"/>
    </contour>
  </outline>
</glyph>
<glyph name="uni0306" format="2">
  <anchor x="352" y="488" name="_top"/>
  <outline>
    <contour>
      <point x="382" y="580" type="curve" smooth="yes"/>
      <point x="457" y="580"/>
      <point x="518" y="625"/>
      <point x="552" y="702" type="curve"/>
      <point x="503" y="718" type="line"/>
      <point x="477" y="658"/>
      <point x="436" y="626"/>
      <point x="384" y="626" type="curve" smooth="yes"/>
      <point x="327" y="626"/>
      <point x="294" y="659"/>
      <point x="292" y="721" type="curve"/>
      <point x="244" y="712" type="line"/>
      <point x="246" y="631"/>
      <point x="300" y="580"/>
    </contour>
  </outline>
</glyph>
<glyph name="uni0308" format="2">
  <guideline x="385" y="666" angle="90.0" identifier="ZLJNNYRNwr"/>
  <guideline x="385" y="666" angle="0.0" identifier="e3xUI0MGpf"/>
  <anchor x="352" y="488" name="_top"/>
  <outline>
    <contour>
      <point x="282" y="604" type="curve" smooth="yes"/>
      <point x="320" y="604"/>
      <point x="351" y="635"/>
      <point x="351" y="670" type="curve" smooth="yes"/>
      <point x="351" y="702"/>
      <point x="325" y="728"/>
      <point x="293" y="728" type="curve" smooth="yes"/>
      <point x="256" y="728"/>
      <point x="224" y="696"/>
      <point x="224" y="661" type="curve" smooth="yes"/>
      <point x="224" y="629"/>
      <point x="249" y="604"/>
    </contour>
    <contour>
      <point x="486" y="604" type="curve" smooth="yes"/>
      <point x="524" y="604"/>
      <point x="555" y="635"/>
      <point x="555" y="670" type="curve" smooth="yes"/>
      <point x="555" y="702"/>
      <point x="529" y="728"/>
      <point x="497" y="728" type="curve" smooth="yes"/>
      <point x="460" y="728"/>
      <point x="428" y="696"/>
      <point x="428" y="661" type="curve" smooth="yes"/>
      <point x="428" y="629"/>
      <point x="453" y="604"/>
    </contour>
  </outline>
</glyph>
<glyph name="uni030C" format="2">
  <anchor x="352" y="488" name="_top"/>
  <outline>
    <contour>
      <point x="335" y="603" type="line"/>
      <point x="412" y="603" type="line"/>
      <point x="549" y="730" type="line"/>
      <point x="487" y="730" type="line"/>
      <point x="378" y="646" type="line"/>
      <point x="306" y="730" type="line"/>
      <point x="249" y="730" type="line"/>
    </contour>
  </outline>
</glyph>
